<?xml version="1.0" encoding="UTF-8"?>
<svg version="1.1" xmlns="http://www.w3.org/2000/svg" width="500" height="500">
<path d="M0 0 C4.66138219 3.66251458 6.03006184 8.62819383 8 14 C8.35835937 14.86625 8.71671875 15.7325 9.0859375 16.625 C10 19 10 19 10.5 22.0625 C10.97467839 24.85123553 11.65814799 26.55309339 13 29 C15.13265306 33.60204082 15.13265306 33.60204082 14 37 C14.99 37.33 15.98 37.66 17 38 C17.12375 39.134375 17.2475 40.26875 17.375 41.4375 C17.58125 42.613125 17.7875 43.78875 18 45 C18.66 45.33 19.32 45.66 20 46 C21.05959704 48.53240741 22.02306795 51.04063535 22.9375 53.625 C24.8105271 58.8273208 26.80266209 63.92236781 29 69 C29.74682745 70.93076126 30.47763327 72.86784592 31.1875 74.8125 C31.53167969 75.74707031 31.87585938 76.68164062 32.23046875 77.64453125 C33 80 33 80 33 82 C33.66 82.66 34.32 83.32 35 84 C35.35015049 85.66321482 35.68197057 87.33034549 36 89 C36.64348218 90.34467576 37.31442296 91.67629069 38 93 C38.86339758 94.82900422 39.71701471 96.6626469 40.5625 98.5 C40.99691406 99.4384375 41.43132812 100.376875 41.87890625 101.34375 C42.82452236 103.58423417 43.46202271 105.64117648 44 108 C44.63270867 109.34977849 45.30062468 110.68352881 46 112 C47.03466859 113.94761146 47.91934934 115.66587585 48.4375 117.8125 C49.08235647 120.32027515 50.08300237 122.60170106 51.12109375 124.96875 C52.84010075 128.94156619 54.41165625 132.97360414 56 137 C56.45117188 138.13050781 56.90234375 139.26101562 57.3671875 140.42578125 C57.82351563 141.58464844 58.27984375 142.74351562 58.75 143.9375 C59.17796875 145.01902344 59.6059375 146.10054687 60.046875 147.21484375 C61 150 61 150 61 153 C61.66 153.33 62.32 153.66 63 154 C63.92977039 156.05070853 64.77086096 158.14211336 65.5625 160.25 C66.21412109 161.95929688 66.21412109 161.95929688 66.87890625 163.703125 C68 167 68 167 68.52734375 169.734375 C68.90875664 172.26731031 68.90875664 172.26731031 71 175 C74.31606833 182.09170047 77.65802262 189.24635289 79 197 C78.67 197.66 78.34 198.32 78 199 C78.99 199 79.98 199 81 199 C81.12375 199.5775 81.2475 200.155 81.375 200.75 C81.91221899 202.98199977 81.91221899 202.98199977 82.9375 204.8125 C84 207 84 207 84.875 210.1875 C86.00201017 214.00681223 87.47990547 217.4033063 89.1953125 220.984375 C90 223 90 223 90 226 C90.66 226.66 91.32 227.32 92 228 C92.165 229.010625 92.33 230.02125 92.5 231.0625 C92.665 232.031875 92.83 233.00125 93 234 C93.66 234.33 94.32 234.66 95 235 C96.25269634 237.67379762 97.40013498 240.32664328 98.5 243.0625 C98.80808594 243.80177734 99.11617187 244.54105469 99.43359375 245.30273438 C101.40847064 250.14669206 102.80273099 254.91021453 104 260 C104.90833725 262.06669397 104.90833725 262.06669397 106 264 C111 275.25 111 275.25 111 279 C111.66 279.33 112.32 279.66 113 280 C114.93961988 284.15966674 116.52390737 288.46451101 118.14599609 292.75634766 C119.02198755 295.05776602 119.92702819 297.34657558 120.83203125 299.63671875 C121.41060431 301.15297917 121.98746911 302.6698927 122.5625 304.1875 C122.8502832 304.90550781 123.13806641 305.62351562 123.43457031 306.36328125 C124.19140625 308.41796875 124.19140625 308.41796875 125 312 C123.3569634 315.48437072 122.19913798 315.92034481 118.5625 317.375 C115 318 115 318 112.5625 317.125 C112.046875 316.75375 111.53125 316.3825 111 316 C110.67 317.32 110.34 318.64 110 320 C109.01 320 108.02 320 107 320 C107 320.99 107 321.98 107 323 C105.02 323.66 103.04 324.32 101 325 C99.26043342 323.26043342 99.62809614 320.8063378 99.4375 318.4375 C99.35371094 317.42558594 99.26992188 316.41367187 99.18359375 315.37109375 C99.12300781 314.58863281 99.06242188 313.80617188 99 313 C98.34 313 97.68 313 97 313 C96.896875 312.401875 96.79375 311.80375 96.6875 311.1875 C95.86619675 308.57426238 95.17931115 307.65327053 93 306 C90.17891717 304.42073819 90.17891717 304.42073819 87 304 C83.06763226 306.28626031 81.07872834 309.02429006 79 313 C78.2209306 316.04178807 78.2209306 316.04178807 77.8125 319.1875 C77.65394531 320.23292969 77.49539063 321.27835937 77.33203125 322.35546875 C76.95847471 324.88652109 76.95847471 324.88652109 77 327 C77 333 77 339 77 345 C77.36377856 351.06297596 79.26631793 355.30591995 83 360 C86.18095101 362.12063401 88.20065201 362.54001199 92 362.44921875 C95.67785864 361.62313722 97.0579538 359.02730731 99 356 C101.19234991 351.92849302 101.08310469 348.570758 101 344 C101.5 341.5625 101.5 341.5625 102 340 C104.07553648 339.4465236 105.84365964 339 108 339 C108.33 339.66 108.66 340.32 109 341 C110.64363134 341.72159424 112.31050386 342.39351421 114 343 C114.15384615 352.07692308 114.15384615 352.07692308 113 356 C112.34 356.66 111.68 357.32 111 358 C110.67 358.99 110.34 359.98 110 361 C107.20154177 364.10099426 104.77230811 366.24857123 101 368 C100.67 368.66 100.34 369.32 100 370 C97.890625 370.4140625 97.890625 370.4140625 95.25 370.625 C94.38890625 370.69976562 93.5278125 370.77453125 92.640625 370.8515625 C90.08696789 370.99511127 87.55704224 371.02759398 85 371 C85 371.66 85 372.32 85 373 C84.01 373 83.02 373 82 373 C82 372.34 82 371.68 82 371 C81.35933594 371.03480469 80.71867188 371.06960938 80.05859375 371.10546875 C73.18038939 371.32073297 68.22921931 370.84931116 62.875 366.125 C62.25625 365.42375 61.6375 364.7225 61 364 C60.175 363.278125 59.35 362.55625 58.5 361.8125 C53.40191376 356.07715298 51.38506326 349.57291087 51 342 C51.4375 339.5 51.4375 339.5 52 338 C51.34 338 50.68 338 50 338 C49.74934726 332.48563969 49.74934726 332.48563969 51 330.0625 C52.24810891 327.88509458 52.24810891 327.88509458 51.9375 324.6875 C52.03211545 319.1051887 54.5534328 314.89313439 57 310 C57 309.67 57 309.34 57 309 C56.56042969 308.6184375 56.12085938 308.236875 55.66796875 307.84375 C53.38255521 305.31748491 52.50504158 302.68011089 51.3125 299.5 C50.87550781 298.3553125 50.43851563 297.210625 49.98828125 296.03125 C49 293 49 293 49 290 C48.34 289.67 47.68 289.34 47 289 C47 288.01 47 287.02 47 286 C42.72920293 285.8323954 38.45835675 285.66607641 34.1875 285.5 C32.97255859 285.45230469 31.75761719 285.40460938 30.50585938 285.35546875 C28.76079102 285.28779297 28.76079102 285.28779297 26.98046875 285.21875 C25.90692139 285.17685547 24.83337402 285.13496094 23.72729492 285.09179688 C19.74309897 284.9576945 15.76963247 285.02916098 11.78442383 285.09179688 C10.5033223 285.11181763 9.22222076 285.13183838 7.90229797 285.15246582 C6.50387565 285.17455554 5.10545341 285.19665039 3.70703125 285.21875 C2.27642346 285.24119069 0.84581534 285.26361066 -0.58479309 285.28601074 C-4.3478528 285.34498742 -8.11090803 285.40424558 -11.8739624 285.46356201 C-15.7148004 285.52405483 -19.55564256 285.58428192 -23.39648438 285.64453125 C-30.93099369 285.7627605 -38.46549829 285.88128707 -46 286 C-46.33773437 286.92683594 -46.67546875 287.85367187 -47.0234375 288.80859375 C-47.46945313 290.00613281 -47.91546875 291.20367187 -48.375 292.4375 C-48.81585938 293.63246094 -49.25671875 294.82742188 -49.7109375 296.05859375 C-51 299 -51 299 -53 300 C-53.38932033 301.98985949 -53.71887936 303.99199544 -54 306 C-55 309 -55 309 -57 310 C-57.34541851 312.33157492 -57.67794257 314.66508361 -58 317 C-58.66 317.99 -59.32 318.98 -60 320 C-60.33 321.175625 -60.66 322.35125 -61 323.5625 C-62 327 -62 327 -64 329 C-64.72433347 330.97984481 -65.37743972 332.98583438 -66 335 C-67.82370751 340.71137143 -69.86036959 346.286949 -72.1328125 351.8359375 C-72.81367079 353.53501629 -73.42117043 355.26351128 -74 357 C-74.96475271 359.54829725 -75.94331568 362.08828031 -76.9375 364.625 C-77.20240234 365.31851562 -77.46730469 366.01203125 -77.74023438 366.7265625 C-79.77045023 371.88522511 -79.77045023 371.88522511 -82 373 C-82 374.65 -82 376.3 -82 378 C-37.78 378.33 6.44 378.66 52 379 C52 373.72 52 368.44 52 363 C53.32 362.34 54.64 361.68 56 361 C60.87782923 365.75134171 65.7361749 370.52195383 70.58129883 375.30664062 C72.23276779 376.93292237 73.88869042 378.55469406 75.54907227 380.171875 C77.93122056 382.49356267 80.2970238 384.83085467 82.66015625 387.171875 C83.40902603 387.89493835 84.15789581 388.61800171 84.92945862 389.36297607 C85.61023972 390.04337952 86.29102081 390.72378296 86.99243164 391.42480469 C87.90177208 392.31749054 87.90177208 392.31749054 88.82948303 393.22821045 C90 395 90 395 89.77171326 397.10333252 C88.84883819 399.37151584 87.67235296 400.90791886 86.0625 402.75 C85.53785156 403.36359375 85.01320313 403.9771875 84.47265625 404.609375 C83 406 83 406 81 406 C80.67 406.99 80.34 407.98 80 409 C79.34 409 78.68 409 78 409 C77.34 410.32 76.68 411.64 76 413 C75.34 413 74.68 413 74 413 C73.67 413.99 73.34 414.98 73 416 C71.0625 418.1875 71.0625 418.1875 69 420 C68.34 420 67.68 420 67 420 C66.67 420.99 66.34 421.98 66 423 C64.54108679 424.26439145 63.07747656 425.52498852 61.56640625 426.7265625 C59.56884209 428.3505174 57.78427898 430.14709491 56 432 C54.68 431.34 53.36 430.68 52 430 C52 425.05 52 420.1 52 415 C27.9308095 414.97687253 3.86162166 414.9590164 -20.20757771 414.94818783 C-31.38277374 414.94302678 -42.55796276 414.93598771 -53.7331543 414.92456055 C-63.47098218 414.91460788 -73.20880498 414.90814518 -82.94663781 414.90591151 C-88.10495297 414.90460539 -93.26325359 414.90152578 -98.4215641 414.89426994 C-103.27318481 414.88750057 -108.12478493 414.88538493 -112.97640991 414.88689232 C-114.76025186 414.88661641 -116.54409448 414.88461671 -118.32793236 414.88079453 C-120.7572875 414.87584299 -123.18656419 414.87700716 -125.61592102 414.87974548 C-126.32700793 414.87683264 -127.03809484 414.8739198 -127.77072984 414.87091869 C-130.79914466 414.88018946 -133.10098883 415.03366294 -136 416 C-136.33 415.34 -136.66 414.68 -137 414 C-137.721875 413.896875 -138.44375 413.79375 -139.1875 413.6875 C-144.42113087 412.40816801 -147.20544437 409.28154133 -149.9375 404.875 C-152.31925653 398.3535238 -150.7677915 391.23585317 -148.0625 385.0625 C-147.39250704 383.69958656 -146.70567829 382.34478316 -146 381 C-142.91911463 374.89614065 -140.58136729 368.91620468 -138.74609375 362.33203125 C-138.02130336 360.06658695 -137.09239894 358.10738379 -136 356 C-134.55653804 352.21950439 -133.15561286 348.42547313 -131.765625 344.625 C-131.32734375 343.449375 -130.8890625 342.27375 -130.4375 341.0625 C-130.02371094 339.93972656 -129.60992187 338.81695312 -129.18359375 337.66015625 C-128 335 -128 335 -126 334 C-125.835 332.845 -125.67 331.69 -125.5 330.5 C-125.335 329.345 -125.17 328.19 -125 327 C-124.34 326.67 -123.68 326.34 -123 326 C-122.41943657 324.11591969 -122.41943657 324.11591969 -122.0625 321.875 C-120.72670478 315.32028392 -117.90017503 309.65950381 -114.76953125 303.796875 C-113.80316095 301.86616282 -113.80316095 301.86616282 -114 299 C-113.01 299 -112.02 299 -111 299 C-111.30321167 298.17665161 -111.30321167 298.17665161 -111.61254883 297.33666992 C-112.12484373 294.24708295 -111.3449516 292.51595435 -110.19921875 289.61328125 C-109.79896484 288.59298828 -109.39871094 287.57269531 -108.98632812 286.52148438 C-108.55771484 285.46251953 -108.12910156 284.40355469 -107.6875 283.3125 C-107.27048828 282.24193359 -106.85347656 281.17136719 -106.42382812 280.06835938 C-103.26950188 272.13475094 -103.26950188 272.13475094 -101 271 C-100.79501392 269.3942757 -100.59367811 267.78800635 -100.41015625 266.1796875 C-99.46852605 261.17559556 -97.62670254 255.62670254 -94 252 C-93.27680653 249.97991976 -93.27680653 249.97991976 -92.6875 247.625 C-91.27684886 242.68772102 -89.41476955 238.07636999 -87.3984375 233.359375 C-85.78279318 229.47821826 -84.28500065 225.56223045 -82.8125 221.625 C-82.56266357 220.95903809 -82.31282715 220.29307617 -82.05541992 219.60693359 C-80.62400496 215.76245156 -79.27367086 211.89948518 -78 208 C-77.34 208 -76.68 208 -76 208 C-75.9175 207.030625 -75.835 206.06125 -75.75 205.0625 C-75.07791468 200.30989668 -73.04651895 196.2976898 -71 192 C-68.83763095 187.66486911 -68.83763095 187.66486911 -68 183 C-67.34 182.67 -66.68 182.34 -66 182 C-65.6268294 180.34179839 -65.30283536 178.6724771 -65 177 C-62.42237072 169.05891904 -59.38296322 161.30005367 -56.11328125 153.62109375 C-55.356885 151.84024504 -54.64721761 150.03897212 -53.98046875 148.22265625 C-53 146 -53 146 -51 145 C-50.65458149 142.66842508 -50.32205743 140.33491639 -50 138 C-49.34 137.01 -48.68 136.02 -48 135 C-47.67 133.824375 -47.34 132.64875 -47 131.4375 C-46 128 -46 128 -44 126 C-43.814375 124.7625 -43.814375 124.7625 -43.625 123.5 C-42.76952569 118.70934384 -40.89657514 114.46356754 -39 110 C-38.01 110 -37.02 110 -36 110 C-36.309375 109.13375 -36.309375 109.13375 -36.625 108.25 C-37.08661261 105.48032433 -36.42944945 104.35438733 -35 102 C-34.34 102 -33.68 102 -33 102 C-33.2475 101.484375 -33.495 100.96875 -33.75 100.4375 C-34.15027964 96.53477349 -32.06779228 94.25833935 -30 91 C-30.66 90.67 -31.32 90.34 -32 90 C-31.34 89.67 -30.68 89.34 -30 89 C-29.61250787 86.67504723 -29.28241883 84.3400417 -29 82 C-28.505 80.515 -28.505 80.515 -28 79 C-27.34 78.67 -26.68 78.34 -26 78 C-25.79624821 76.13227523 -25.59543663 74.26417876 -25.41015625 72.39453125 C-24.53569642 67.28935146 -22.24959016 62.48544856 -19.93359375 57.87890625 C-17.28564684 52.5497746 -15.72206676 46.42981711 -14.5 40.625 C-14.335 40.08875 -14.17 39.5525 -14 39 C-13.34 38.67 -12.68 38.34 -12 38 C-12.0825 37.0925 -12.165 36.185 -12.25 35.25 C-12.26937932 30.48268633 -10.59460283 26.32583981 -9.01953125 21.87890625 C-7.8634881 18.61452386 -6.92275407 15.33611088 -6 12 C-5.67 11.01 -5.34 10.02 -5 9 C-4.71125 7.824375 -4.4225 6.64875 -4.125 5.4375 C-3 2 -3 2 0 0 Z M-8 44 C-7 46 -7 46 -7 46 Z M-5 51 C-4 53 -4 53 -4 53 Z M-1 60 C0 62 0 62 0 62 Z M-23 67 C-22 69 -22 69 -22 69 Z M6 78 C7 80 7 80 7 80 Z M10 91 C9.67 91.66 9.34 92.32 9 93 C9.66 93.66 10.32 94.32 11 95 C10.67 93.68 10.34 92.36 10 91 Z M13 96 C14 98 14 98 14 98 Z M27 131 C28 133 28 133 28 133 Z M28 139 C29 141 29 141 29 141 Z M-8 148 C-8 148.66 -8 149.32 -8 150 C-7.34 149.67 -6.68 149.34 -6 149 C-6.66 148.67 -7.32 148.34 -8 148 Z M34 149 C35 151 35 151 35 151 Z M-55 153 C-54 155 -54 155 -54 155 Z M35 157 C36 159 36 159 36 159 Z M38 159 C39 161 39 161 39 161 Z M-8 166 C-7 168 -7 168 -7 168 Z M39 166 C39.33 166.66 39.66 167.32 40 168 C40.33 167.34 40.66 166.68 41 166 C40.34 166 39.68 166 39 166 Z M-22 167 C-21 169 -21 169 -21 169 Z M-1 170 C-1.67305018 171.60149886 -2.33822227 173.20631029 -3 174.8125 C-3.37125 175.70582031 -3.7425 176.59914062 -4.125 177.51953125 C-5.16633237 180.0331433 -5.16633237 180.0331433 -5 183 C-5.99 183.33 -6.98 183.66 -8 184 C-8.12375 184.9075 -8.2475 185.815 -8.375 186.75 C-8.94276042 189.70235419 -9.66506208 191.37814351 -11 194 C-15.11163678 203.28117015 -15.11163678 203.28117015 -17 213 C-17.99 213.495 -17.99 213.495 -19 214 C-19 214.99 -19 215.98 -19 217 C-19.99 217.495 -19.99 217.495 -21 218 C-21 218.99 -21 219.98 -21 221 C-21.375 223.125 -21.375 223.125 -22 225 C-22.99 225.495 -22.99 225.495 -24 226 C-24.61432869 228.31850007 -24.61432869 228.31850007 -25 231 C-25.4375 233.75 -25.4375 233.75 -26 236 C-26.99 236.495 -26.99 236.495 -28 237 C-29.24061454 240.17045938 -30 242.58238295 -30 246 C-9.87 246 10.26 246 31 246 C31.66 247.32 32.32 248.64 33 250 C33.77242269 248.16299211 33.77242269 248.16299211 34 246 C32.77045984 244.18700508 32.77045984 244.18700508 31 243 C30.34 243 29.68 243 29 243 C28.81630859 241.91912109 28.81630859 241.91912109 28.62890625 240.81640625 C27.80534626 237.12828979 26.33709472 233.86040737 24.83984375 230.40234375 C24 228 24 228 24 224 C23.34 224 22.68 224 22 224 C21.7525 223.236875 21.505 222.47375 21.25 221.6875 C20.21184637 218.6249468 19.11966636 215.59562604 18 212.5625 C16.47732125 208.40768141 15.17893513 204.26230392 14 200 C13.505 199.01 13.505 199.01 13 198 C12.34 198 11.68 198 11 198 C10.95101562 197.38511719 10.90203125 196.77023438 10.8515625 196.13671875 C10.77679688 195.32847656 10.70203125 194.52023438 10.625 193.6875 C10.52058594 192.48673828 10.52058594 192.48673828 10.4140625 191.26171875 C10.10435574 188.72775559 10.10435574 188.72775559 8 186 C7.29835358 184.01200182 6.62627128 182.01301483 6 180 C5.34 180 4.68 180 4 180 C3.505 175.545 3.505 175.545 3 171 C1.68 170.67 0.36 170.34 -1 170 Z M-23 172 C-22 174 -22 174 -22 174 Z M-4 174 C-3 176 -3 176 -3 176 Z M-25 175 C-24 177 -24 177 -24 177 Z M71 179 C72 181 72 181 72 181 Z M46 184 C47 186 47 186 47 186 Z M-29 185 C-28 187 -28 187 -28 187 Z M49 187 C50 189 50 189 50 189 Z M53 200 C53 203 53 203 53 203 Z M-35 201 C-34 203 -34 203 -34 203 Z M-29 201 C-28 203 -28 203 -28 203 Z M49 206 C50 208 50 208 50 208 Z M-29 219 C-28 221 -28 221 -28 221 Z M-43 220 C-42 222 -42 222 -42 222 Z M63 222 C64 224 64 224 64 224 Z M-44 225 C-43 227 -43 227 -43 227 Z M-37 225 C-36 227 -36 227 -36 227 Z M-30 226 C-29 228 -29 228 -29 228 Z M-40 228 C-39 230 -39 230 -39 230 Z M40 228 C41 230 41 230 41 230 Z M-33 229 C-32 231 -32 231 -32 231 Z M66 230 C67 232 67 232 67 232 Z M38 234 C39 236 39 236 39 236 Z M37 236 C38 238 38 238 38 238 Z M36 238 C37 240 37 240 37 240 Z M35 240 C36 242 36 242 36 242 Z M-44 243 C-43 245 -43 245 -43 245 Z M34 244 C35 246 35 246 35 246 Z M-47 246 C-46 248 -46 248 -46 248 Z M74 249 C75 251 75 251 75 251 Z M31 252 C32 254 32 254 32 254 Z M-58 258 C-57 260 -57 260 -57 260 Z M-98 261 C-97 263 -97 263 -97 263 Z M-59 262 C-58 264 -58 264 -58 264 Z M-60 264 C-59 266 -59 266 -59 266 Z M78 265 C79 267 79 267 79 267 Z M-61 266 C-60 268 -60 268 -60 268 Z M81 267 C82 269 82 269 82 269 Z M-62 270 C-61 272 -61 272 -61 272 Z M-63 272 C-62 274 -62 274 -62 274 Z M82 275 C83 277 83 277 83 277 Z M84 275 C85 277 85 277 85 277 Z M-105 279 C-104 281 -104 281 -104 281 Z M85 283 C85 283.66 85 284.32 85 285 C85.99 284.67 86.98 284.34 88 284 C87.01 283.67 86.02 283.34 85 283 Z M88 285 C89 287 89 287 89 287 Z M-62 288 C-61 290 -61 290 -61 290 Z M89 292 C88.67 292.99 88.34 293.98 88 295 C88.63808594 295.04898437 89.27617187 295.09796875 89.93359375 295.1484375 C90.75988281 295.22320312 91.58617187 295.29796875 92.4375 295.375 C93.26121094 295.44460938 94.08492187 295.51421875 94.93359375 295.5859375 C95.95646484 295.79089844 95.95646484 295.79089844 97 296 C97.33 296.66 97.66 297.32 98 298 C99.88013106 299.12224855 99.88013106 299.12224855 102.0625 300.125 C103.16271484 300.65480469 103.16271484 300.65480469 104.28515625 301.1953125 C105.13400391 301.59363281 105.13400391 301.59363281 106 302 C104.12269457 297.7476849 102.33153482 296.81136911 98 295 C95.01804944 293.93953471 92.02001714 292.94627204 89 292 Z M71 296 C71.33 296.66 71.66 297.32 72 298 C72.33 297.34 72.66 296.68 73 296 C72.34 296 71.68 296 71 296 Z M106 302 C106 302.99 106 303.98 106 305 C106.66 305 107.32 305 108 305 C108 304.01 108 303.02 108 302 C107.34 302 106.68 302 106 302 Z M-62 306 C-61 308 -61 308 -61 308 Z M108 309 C108.99 309.495 108.99 309.495 110 310 C109.67 310.99 109.34 311.98 109 313 C109.66 313 110.32 313 111 313 C111 311.68 111 310.36 111 309 C110.01 309 109.02 309 108 309 Z M111 313 C111 313.66 111 314.32 111 315 C111.66 314.67 112.32 314.34 113 314 C112.34 313.67 111.68 313.34 111 313 Z M-80 315 C-79 317 -79 317 -79 317 Z M-83 321 C-82 324 -82 324 -82 324 Z M-76 323 C-75 325 -75 325 -75 325 Z M-69 324 C-68 326 -68 326 -68 326 Z M-84 325 C-83 327 -83 327 -83 327 Z M-85 327 C-84 329 -84 329 -84 329 Z M-86 329 C-85 331 -85 331 -85 331 Z M-88 335 C-87 337 -87 337 -87 337 Z M-89 337 C-88 339 -88 339 -88 339 Z M-83 337 C-82 339 -82 339 -82 339 Z M-76 341 C-75 343 -75 343 -75 343 Z M52 342 C53 344 53 344 53 344 Z M-91 343 C-90 345 -90 345 -90 345 Z M-72 345 C-71 347 -71 347 -71 347 Z M102 349 C103 351 103 351 103 351 Z M-94 351 C-93 353 -93 353 -93 353 Z M-83 355 C-82 357 -82 357 -82 357 Z M-79 363 C-78 365 -78 365 -78 365 Z M-101 368 C-100 370 -100 370 -100 370 Z M-94 369 C-93 371 -93 371 -93 371 Z M-97 372 C-96 374 -96 374 -96 374 Z M-104 374 C-103 376 -103 376 -103 376 Z " fill="#010001" transform="translate(204,26)"/>
<path d="M0 0 C0.78052734 0.00322266 1.56105469 0.00644531 2.36523438 0.00976562 C3.53022461 -0.0144043 3.53022461 -0.0144043 4.71875 -0.0390625 C10.44869202 -0.04399785 10.44869202 -0.04399785 12.67407227 1.6574707 C13.92773438 3.32226562 13.92773438 3.32226562 13.92773438 6.32226562 C14.58773437 6.98226563 15.24773437 7.64226562 15.92773438 8.32226562 C16.45507812 10.16992187 16.45507812 10.16992187 16.86523438 12.38476562 C17.53852111 15.72965413 18.40623716 18.85884386 19.55273438 22.07226562 C20.66891055 25.27496208 21.25977573 27.89117163 20.92773438 31.32226562 C21.58773437 31.65226562 22.24773437 31.98226563 22.92773438 32.32226562 C23.56054688 34.50195312 23.56054688 34.50195312 24.05273438 37.19726562 C24.2203125 38.0815625 24.38789063 38.96585937 24.56054688 39.87695312 C24.92773438 42.32226562 24.92773438 42.32226562 24.92773438 45.32226562 C25.58773437 45.65226562 26.24773437 45.98226562 26.92773438 46.32226562 C27.34179688 48.82617187 27.34179688 48.82617187 27.55273438 51.88476562 C27.66488281 53.40263672 27.66488281 53.40263672 27.77929688 54.95117188 C27.82828125 55.73363281 27.87726563 56.51609375 27.92773438 57.32226562 C28.58773437 57.32226562 29.24773437 57.32226562 29.92773438 57.32226562 C30.59265168 60.36188761 31.04588398 63.35641003 31.36523438 66.44726562 C31.65206205 70.37395995 31.65206205 70.37395995 33.92773438 73.32226562 C33.26773438 73.32226562 32.60773438 73.32226562 31.92773438 73.32226562 C32.58773437 73.98226562 33.24773437 74.64226562 33.92773438 75.32226562 C34.25773437 76.31226563 34.58773437 77.30226563 34.92773438 78.32226562 C35.88679688 78.50789063 35.88679688 78.50789063 36.86523438 78.69726562 C37.54585938 78.90351563 38.22648437 79.10976563 38.92773438 79.32226562 C40.87779235 83.09237771 41.19863947 86.30261599 41.17773438 90.50976562 C41.18546875 92.07791016 41.18546875 92.07791016 41.19335938 93.67773438 C40.92773438 96.32226562 40.92773438 96.32226562 38.92773438 98.32226562 C37.69023437 99.59070313 37.69023437 99.59070313 36.42773438 100.88476562 C32.41623977 104.79597286 29.34458759 104.71068542 23.92773438 105.32226562 C24.40210938 105.67289062 24.87648438 106.02351563 25.36523438 106.38476562 C27.63381184 109.19780168 27.67022109 111.78145793 27.92773438 115.32226562 C27.59773438 115.98226562 27.26773438 116.64226562 26.92773438 117.32226562 C25.93773437 117.32226562 24.94773437 117.32226562 23.92773438 117.32226562 C25.23669157 120.4442404 25.23669157 120.4442404 27.92773438 122.32226562 C27.92773438 125.29226563 27.92773438 128.26226562 27.92773438 131.32226562 C26.93773437 131.65226563 25.94773437 131.98226562 24.92773438 132.32226562 C23.71891341 134.32243029 23.71891341 134.32243029 22.92773438 136.32226562 C20.53067315 136.43081179 18.13857599 136.50979719 15.74023438 136.57226562 C15.06669922 136.60578125 14.39316406 136.63929688 13.69921875 136.67382812 C10.10480854 136.74396296 8.05588075 136.39798087 4.93945312 134.55664062 C2.92773438 132.32226562 2.92773438 132.32226562 2.92773438 128.32226562 C2.53585937 129.27101563 2.14398438 130.21976563 1.74023438 131.19726562 C-0.36904399 134.83395246 -1.16691105 135.1456878 -5.07226562 136.32226562 C-10.81894496 137.0482424 -15.50842429 137.48748074 -20.25976562 133.94726562 C-22.52722012 130.66336601 -23.19749921 129.10543471 -23.16992188 125.18945312 C-23.16669922 124.38378906 -23.16347656 123.578125 -23.16015625 122.74804688 C-23.15177734 121.90628906 -23.14339844 121.06453125 -23.13476562 120.19726562 C-23.13025391 119.34777344 -23.12574219 118.49828125 -23.12109375 117.62304688 C-23.10929437 115.52275654 -23.09135869 113.42250232 -23.07226562 111.32226562 C-24.39226562 111.32226562 -25.71226562 111.32226562 -27.07226562 111.32226562 C-27.07226562 118.91226563 -27.07226562 126.50226563 -27.07226562 134.32226562 C-29.69556246 135.63391404 -31.70925187 135.45489408 -34.63476562 135.44726562 C-35.62605469 135.44984375 -36.61734375 135.45242188 -37.63867188 135.45507812 C-40.07226562 135.32226562 -40.07226562 135.32226562 -41.07226562 134.32226562 C-41.15940394 132.61454205 -41.1792657 130.90327914 -41.16992188 129.19335938 C-41.16669922 128.15888672 -41.16347656 127.12441406 -41.16015625 126.05859375 C-41.15177734 124.96998047 -41.14339844 123.88136719 -41.13476562 122.75976562 C-41.13025391 121.66728516 -41.12574219 120.57480469 -41.12109375 119.44921875 C-41.10926389 116.74018067 -41.09278106 114.03124963 -41.07226562 111.32226562 C-42.72226562 111.32226562 -44.37226563 111.32226562 -46.07226562 111.32226562 C-46.73226563 109.67226563 -47.39226562 108.02226562 -48.07226562 106.32226562 C-45.30184453 103.55184453 -43.30692757 103.92430456 -39.44726562 103.69726562 C-37.66449219 103.58511719 -37.66449219 103.58511719 -35.84570312 103.47070312 C-34.93046875 103.42171875 -34.01523437 103.37273437 -33.07226562 103.32226562 C-33.40226562 102.99226563 -33.73226563 102.66226563 -34.07226562 102.32226562 C-34.4091174 98.03870491 -34.39726973 93.74236778 -34.44726562 89.44726562 C-34.48464844 88.23683594 -34.52203125 87.02640625 -34.56054688 85.77929688 C-34.57214844 84.62042969 -34.58375 83.4615625 -34.59570312 82.26757812 C-34.61552246 81.20039551 -34.6353418 80.13321289 -34.65576172 79.03369141 C-34.36693115 77.69153564 -34.36693115 77.69153564 -34.07226562 76.32226562 C-32.43537344 75.27423807 -30.76906791 74.27023175 -29.07226562 73.32226562 C-29.07226562 72.00226563 -29.07226562 70.68226563 -29.07226562 69.32226562 C-28.08226562 68.82726562 -28.08226562 68.82726562 -27.07226562 68.32226562 C-26.86872375 66.21899957 -26.66906783 64.11527649 -26.49023438 62.00976562 C-25.8693714 58.0176747 -24.40818593 54.44260744 -22.91210938 50.70507812 C-21.90605777 48.27178019 -21.90605777 48.27178019 -22.07226562 45.32226562 C-21.08226562 44.82726562 -21.08226562 44.82726562 -20.07226562 44.32226562 C-19.77820717 42.32920273 -19.4914879 40.33392131 -19.28320312 38.33007812 C-19.06340125 36.23788988 -18.78656145 34.30642068 -18.07226562 32.32226562 C-17.41226562 31.99226563 -16.75226563 31.66226562 -16.07226562 31.32226562 C-15.67976522 29.32938951 -15.67976522 29.32938951 -15.57226562 27.00976562 C-15.34347668 23.54933291 -14.63758395 21.38959896 -13.07226562 18.32226562 C-12.53166515 16.33285588 -12.03435793 14.33136261 -11.57226562 12.32226562 C-9.78930739 4.57027329 -8.72233488 0.08278316 0 0 Z M-5.07226562 24.32226562 C-4.07226562 27.32226562 -4.07226562 27.32226562 -4.07226562 27.32226562 Z M-4.07226562 29.32226562 C-4.36101562 30.10601562 -4.64976562 30.88976562 -4.94726562 31.69726562 C-6.07226562 34.32226562 -6.07226562 34.32226562 -8.07226562 36.32226562 C-8.45975775 38.6472184 -8.7898468 40.98222392 -9.07226562 43.32226562 C-9.27851563 44.10601562 -9.48476563 44.88976562 -9.69726562 45.69726562 C-9.82101562 46.23351562 -9.94476563 46.76976562 -10.07226562 47.32226562 C-9.0124763 48.60839238 -9.0124763 48.60839238 -6.56835938 48.41992188 C-5.55902344 48.40832031 -4.5496875 48.39671875 -3.50976562 48.38476562 C-2.49785156 48.37574219 -1.4859375 48.36671875 -0.44335938 48.35742188 C0.33910156 48.34582031 1.1215625 48.33421875 1.92773438 48.32226562 C1.17119896 42.27542162 1.17119896 42.27542162 -0.07226562 36.32226562 C-0.73226562 35.99226563 -1.39226562 35.66226563 -2.07226562 35.32226562 C-1.74226563 33.67226563 -1.41226563 32.02226562 -1.07226562 30.32226562 C-2.06226563 29.99226563 -3.05226563 29.66226562 -4.07226562 29.32226562 Z M-13.07226562 60.32226562 C-13.87664062 62.26101563 -14.68101562 64.19976562 -15.50976562 66.19726562 C-17.94726562 72.07226562 -17.94726562 72.07226562 -19.07226562 74.32226562 C-21.13476562 74.94726562 -21.13476562 74.94726562 -23.07226562 75.32226562 C-22.85570312 76.18851563 -22.85570312 76.18851563 -22.63476562 77.07226562 C-22.11393229 79.15559896 -21.59309896 81.23893229 -21.07226562 83.32226562 C-20.41226562 83.32226562 -19.75226563 83.32226562 -19.07226562 83.32226562 C-16.7131621 79.05853752 -16.7131621 79.05853752 -16.07226562 74.32226562 C-13.10226562 74.32226562 -10.13226563 74.32226562 -7.07226562 74.32226562 C-6.04598316 77.40111301 -5.94320048 79.53490192 -5.93945312 82.75976562 C-5.93816406 83.819375 -5.936875 84.87898438 -5.93554688 85.97070312 C-5.93941406 87.07671875 -5.94328125 88.18273437 -5.94726562 89.32226562 C-5.94146484 90.98128906 -5.94146484 90.98128906 -5.93554688 92.67382812 C-5.93683594 93.7334375 -5.938125 94.79304688 -5.93945312 95.88476562 C-5.94058105 96.85542969 -5.94170898 97.82609375 -5.94287109 98.82617188 C-6.07226562 101.32226562 -6.07226562 101.32226562 -7.07226562 104.32226562 C-9.05226563 104.32226562 -11.03226562 104.32226562 -13.07226562 104.32226562 C-12.74226563 112.57226562 -12.41226563 120.82226562 -12.07226562 129.32226562 C-9.76226562 129.32226562 -7.45226562 129.32226562 -5.07226562 129.32226562 C-3.43708069 127.68708069 -3.84799783 125.77304646 -3.75585938 123.51757812 C-3.71396484 122.54175781 -3.67207031 121.5659375 -3.62890625 120.56054688 C-3.58958984 119.53316406 -3.55027344 118.50578125 -3.50976562 117.44726562 C-3.46658203 116.42761719 -3.42339844 115.40796875 -3.37890625 114.35742188 C-3.13338009 108.44141048 -3.08421984 102.60507626 -3.29101562 96.68554688 C-3.33613281 95.38681641 -3.38125 94.08808594 -3.42773438 92.75 C-3.47590028 91.37825482 -3.5240775 90.00651003 -3.57226562 88.63476562 C-3.62049017 87.25130374 -3.6686678 85.86784021 -3.71679688 84.484375 C-3.83482426 81.09698907 -3.95348533 77.70962523 -4.07226562 74.32226562 C0.54773438 74.32226562 5.16773438 74.32226562 9.92773438 74.32226562 C9.03005781 71.19070692 9.03005781 71.19070692 6.92773438 68.32226562 C7.58773437 67.99226563 8.24773437 67.66226563 8.92773438 67.32226562 C8.26773438 67.32226562 7.60773438 67.32226562 6.92773438 67.32226562 C6.78335938 66.53851563 6.63898438 65.75476563 6.49023438 64.94726562 C6.04974513 62.35805545 6.04974513 62.35805545 4.92773438 60.32226562 C-1.01226562 60.32226562 -6.95226562 60.32226562 -13.07226562 60.32226562 Z M13.92773438 75.32226562 C14.91773438 75.81726563 14.91773438 75.81726563 15.92773438 76.32226562 C15.92773438 85.56226563 15.92773438 94.80226563 15.92773438 104.32226562 C16.25773437 104.32226562 16.58773437 104.32226562 16.92773438 104.32226562 C16.92773438 94.75226563 16.92773438 85.18226563 16.92773438 75.32226562 C15.93773437 75.32226562 14.94773437 75.32226562 13.92773438 75.32226562 Z M13.92773438 79.32226562 C13.59773438 79.65226562 13.26773438 79.98226562 12.92773438 80.32226562 C10.27310317 80.7768642 7.605843 81.024698 4.92773438 81.32226562 C4.92773438 82.31226563 4.92773438 83.30226563 4.92773438 84.32226562 C7.23773438 84.98226562 9.54773438 85.64226562 11.92773438 86.32226562 C11.92773438 87.64226562 11.92773438 88.96226562 11.92773438 90.32226562 C9.61773437 90.98226562 7.30773437 91.64226562 4.92773438 92.32226562 C4.92773438 94.63226563 4.92773438 96.94226563 4.92773438 99.32226562 C8.22773438 99.32226562 11.52773438 99.32226562 14.92773438 99.32226562 C14.92773438 92.72226562 14.92773438 86.12226563 14.92773438 79.32226562 C14.59773438 79.32226562 14.26773438 79.32226562 13.92773438 79.32226562 Z M26.92773438 81.32226562 C26.92773438 86.60226562 26.92773438 91.88226563 26.92773438 97.32226562 C27.91773438 96.99226563 28.90773438 96.66226563 29.92773438 96.32226562 C31.19011168 93.79751101 31.02629842 92.01026097 30.99023438 89.19726562 C30.98121094 88.2871875 30.9721875 87.37710938 30.96289062 86.43945312 C30.95128906 85.74078125 30.9396875 85.04210937 30.92773438 84.32226562 C29.93773437 83.99226563 28.94773437 83.66226563 27.92773438 83.32226562 C27.59773438 82.66226563 27.26773438 82.00226563 26.92773438 81.32226562 Z M-20.07226562 86.32226562 C-19.07226562 88.32226562 -19.07226562 88.32226562 -19.07226562 88.32226562 Z M-16.07226562 90.32226562 C-16.19601562 91.62164062 -16.31976563 92.92101562 -16.44726562 94.25976562 C-16.65820312 96.47460938 -16.65820312 96.47460938 -17.07226562 98.32226562 C-18.06226563 98.81726563 -18.06226563 98.81726563 -19.07226562 99.32226562 C-19.07226562 100.97226562 -19.07226562 102.62226563 -19.07226562 104.32226562 C-17.75226563 104.32226562 -16.43226563 104.32226562 -15.07226562 104.32226562 C-15.07226562 99.70226562 -15.07226562 95.08226562 -15.07226562 90.32226562 C-15.40226562 90.32226562 -15.73226562 90.32226562 -16.07226562 90.32226562 Z M-28.07226562 93.32226562 C-27.07226562 96.32226562 -27.07226562 96.32226562 -27.07226562 96.32226562 Z M-27.07226562 96.32226562 C-26.07226562 98.32226562 -26.07226562 98.32226562 -26.07226562 98.32226562 Z M-28.07226562 101.32226562 C-28.40226562 102.31226563 -28.73226563 103.30226563 -29.07226562 104.32226562 C-27.75226563 104.32226562 -26.43226563 104.32226562 -25.07226562 104.32226562 C-25.07226562 103.33226562 -25.07226562 102.34226562 -25.07226562 101.32226562 C-26.06226563 101.32226562 -27.05226563 101.32226562 -28.07226562 101.32226562 Z M0.92773438 104.32226562 C1.58773437 106.63226563 2.24773437 108.94226563 2.92773438 111.32226562 C5.94187404 109.31283918 6.59133319 108.50906846 7.92773438 105.32226562 C7.92773438 104.99226563 7.92773438 104.66226563 7.92773438 104.32226562 C5.61773437 104.32226562 3.30773437 104.32226562 0.92773438 104.32226562 Z M8.92773438 104.32226562 C9.92773438 106.32226562 9.92773438 106.32226562 9.92773438 106.32226562 Z M9.92773438 111.32226562 C9.92773438 112.64226562 9.92773438 113.96226562 9.92773438 115.32226562 C12.23773438 115.32226562 14.54773438 115.32226562 16.92773438 115.32226562 C16.92773438 113.67226563 16.92773438 112.02226562 16.92773438 110.32226562 C13.29888113 110.17077264 13.29888113 110.17077264 9.92773438 111.32226562 Z M2.92773438 113.32226562 C2.92773438 117.28226562 2.92773438 121.24226563 2.92773438 125.32226562 C6.39273438 124.82726562 6.39273438 124.82726562 9.92773438 124.32226562 C9.86585938 123.37351562 9.80398438 122.42476562 9.74023438 121.44726562 C9.80210937 120.41601562 9.86398437 119.38476562 9.92773438 118.32226562 C10.91773438 117.66226563 11.90773438 117.00226563 12.92773438 116.32226562 C12.20585937 116.19851563 11.48398437 116.07476562 10.74023438 115.94726562 C7.92773438 115.32226562 7.92773438 115.32226562 2.92773438 113.32226562 Z M9.92773438 124.32226562 C10.25773437 126.30226563 10.58773437 128.28226562 10.92773438 130.32226562 C12.90773438 130.81726563 12.90773438 130.81726563 14.92773438 131.32226562 C15.58773437 129.01226562 16.24773437 126.70226562 16.92773438 124.32226562 C14.61773437 124.32226562 12.30773437 124.32226562 9.92773438 124.32226562 Z " fill="#030203" transform="translate(344.072265625,321.677734375)"/>
<path d="M0 0 C1.36665875 0.0003172 2.73334241 0.01164729 4.09985352 0.03173828 C5.18364037 0.03598312 5.18364037 0.03598312 6.2893219 0.04031372 C8.6026353 0.05151953 10.91556341 0.07660202 13.22875977 0.10205078 C14.78409267 0.11208206 16.33943169 0.12120765 17.89477539 0.12939453 C20.7476377 0.14574728 23.60035488 0.16715402 26.453125 0.1953125 C28.56576759 0.21539906 30.67852169 0.22705078 32.79125977 0.22705078 C37.94110843 1.1282743 42.14064904 2.85007197 46.79125977 5.22705078 C46.79125977 5.88705078 46.79125977 6.54705078 46.79125977 7.22705078 C47.36875977 7.45392578 47.94625977 7.68080078 48.54125977 7.91455078 C53.22320266 10.64568414 55.80569934 15.31042496 57.79125977 20.22705078 C58.16808954 22.61099493 58.41096799 24.964332 58.58032227 27.37158203 C58.59780629 29.24116692 58.59780629 29.24116692 59.79125977 30.22705078 C59.89194439 32.65532691 59.92997737 35.04903489 59.91625977 37.47705078 C59.92012695 38.14607422 59.92399414 38.81509766 59.92797852 39.50439453 C59.90727689 50.04152316 56.99651001 59.40259934 49.79125977 67.22705078 C48.80125977 67.88705078 47.81125977 68.54705078 46.79125977 69.22705078 C46.19313477 69.72205078 45.59500977 70.21705078 44.97875977 70.72705078 C42.34857289 72.53060749 39.84474779 73.33645011 36.79125977 74.22705078 C36.23841309 74.4066333 35.68556641 74.58621582 35.1159668 74.77124023 C31.62609213 75.45550783 28.13863232 75.38983585 24.59594727 75.39501953 C23.41296555 75.40001213 23.41296555 75.40001213 22.20608521 75.40510559 C20.54356468 75.41015737 18.88103406 75.41251446 17.21850586 75.41235352 C14.66837089 75.41454896 12.11866251 75.43274718 9.56860352 75.45166016 C7.95271958 75.4545926 6.33683359 75.45657839 4.72094727 75.45751953 C3.956362 75.46470505 3.19177673 75.47189056 2.40402222 75.47929382 C-2.97990357 75.45588745 -2.97990357 75.45588745 -5.20874023 73.22705078 C-5.46270752 70.30456543 -5.46270752 70.30456543 -5.4675293 66.51416016 C-5.47103394 65.82457718 -5.47453857 65.1349942 -5.47814941 64.42451477 C-5.48696852 62.13984173 -5.48111711 59.8554771 -5.47436523 57.57080078 C-5.47571184 55.98661235 -5.47765233 54.40242432 -5.48016357 52.8182373 C-5.48311507 49.4959724 -5.47881641 46.17381493 -5.46948242 42.8515625 C-5.45808781 38.58743487 -5.46464715 34.323559 -5.47662735 30.05944061 C-5.48384529 26.78755792 -5.48155834 23.51573518 -5.47637177 20.24385071 C-5.47503508 18.67133047 -5.47668364 17.09880483 -5.48133087 15.52629089 C-5.48639509 13.33069385 -5.47868773 11.13550774 -5.4675293 8.93994141 C-5.46593811 7.68910767 -5.46434692 6.43827393 -5.46270752 5.14953613 C-5.09545442 0.92343356 -4.20120145 0.29727744 0 0 Z M19.79125977 10.22705078 C19.79125977 28.70705078 19.79125977 47.18705078 19.79125977 66.22705078 C25.81932209 66.22705078 27.87902805 65.08760056 32.10375977 60.97705078 C34.23286095 57.50740441 34.01386254 55.2339007 33.79125977 51.22705078 C34.12125977 50.23705078 34.45125977 49.24705078 34.79125977 48.22705078 C34.87335769 46.45391228 34.89872271 44.67784303 34.88891602 42.90283203 C34.88408203 41.36079102 34.88408203 41.36079102 34.87915039 39.78759766 C34.87077148 38.71574219 34.86239258 37.64388672 34.85375977 36.53955078 C34.84924805 35.45609375 34.84473633 34.37263672 34.84008789 33.25634766 C34.8282972 30.57985993 34.8118404 27.90348301 34.79125977 25.22705078 C34.13125977 25.22705078 33.47125977 25.22705078 32.79125977 25.22705078 C33.12125977 22.58705078 33.45125977 19.94705078 33.79125977 17.22705078 C32.80125977 16.89705078 31.81125977 16.56705078 30.79125977 16.22705078 C30.79125977 15.23705078 30.79125977 14.24705078 30.79125977 13.22705078 C26.76648261 10.03090422 25.28951906 10.22705078 19.79125977 10.22705078 Z " fill="#020101" transform="translate(384.208740234375,321.77294921875)"/>
<path d="M0 0 C1.93627769 -0.10807131 3.87427756 -0.1856225 5.8125 -0.25 C7.43091797 -0.31960938 7.43091797 -0.31960938 9.08203125 -0.390625 C12 0 12 0 13.875 1.828125 C15.35992881 4.69486257 15.1996269 6.80596958 15 10 C14.74696243 13.82233007 14.74696243 13.82233007 16 16.4375 C17.46110345 20.1815776 17.34677004 22.78630484 16.25 26.625 C14.78123737 29.41564899 13.70470201 30.39081595 11 32 C5.15476408 32.8958216 -0.22535264 33.16034635 -5.25 29.875 C-7.70053606 25.84911933 -8 22.63418457 -8 18 C-8.66 18 -9.32 18 -10 18 C-9.67 17.278125 -9.34 16.55625 -9 15.8125 C-7.8253439 13.11212718 -7.8253439 13.11212718 -8.1875 10.5625 C-7.89314525 6.53965176 -5.78276511 4.84902143 -3 2 C-2.34 2 -1.68 2 -1 2 C-0.67 1.34 -0.34 0.68 0 0 Z M5 6 C4.67 7.32 4.34 8.64 4 10 C5.98 9.34 7.96 8.68 10 8 C9.67 7.34 9.34 6.68 9 6 C7.68 6 6.36 6 5 6 Z M4 17 C1.66608797 19.78114056 1.66608797 19.78114056 2.375 22.6875 C2.58125 23.450625 2.7875 24.21375 3 25 C3.99 25 4.98 25 6 25 C7.35618499 23.87465895 7.35618499 23.87465895 7.0625 20.9375 C7.041875 19.968125 7.02125 18.99875 7 18 C6.01 17.67 5.02 17.34 4 17 Z " fill="#060305" transform="translate(382,426)"/>
<path d="M0 0 C0.33 0 0.66 0 1 0 C1 4.62 1 9.24 1 14 C0.67 12.68 0.34 11.36 0 10 C-0.66 10 -1.32 10 -2 10 C-2.17942163 6.05272412 -2.09350689 3.4019487 0 0 Z " fill="#0B0409" transform="translate(256,354)"/>
<path d="M0 0 C1.65322266 0.01740234 1.65322266 0.01740234 3.33984375 0.03515625 C4.99693359 0.04869141 4.99693359 0.04869141 6.6875 0.0625 C7.54214844 0.07410156 8.39679688 0.08570312 9.27734375 0.09765625 C9.27734375 0.42765625 9.27734375 0.75765625 9.27734375 1.09765625 C3.33734375 1.59265625 3.33734375 1.59265625 -2.72265625 2.09765625 C-3.05265625 4.07765625 -3.38265625 6.05765625 -3.72265625 8.09765625 C-4.38265625 7.76765625 -5.04265625 7.43765625 -5.72265625 7.09765625 C-3.49748333 0.12544775 -3.49748333 0.12544775 0 0 Z " fill="#0E050C" transform="translate(175.72265625,118.90234375)"/>
<path d="M0 0 C0.33 0 0.66 0 1 0 C1 1.65 1 3.3 1 5 C2.98 5 4.96 5 7 5 C7 5.33 7 5.66 7 6 C5.35 6 3.7 6 2 6 C1.67 7.32 1.34 8.64 1 10 C0.34 10 -0.32 10 -1 10 C-1.02689216 8.52093108 -1.04634621 7.04172517 -1.0625 5.5625 C-1.07410156 4.73878906 -1.08570313 3.91507813 -1.09765625 3.06640625 C-1 1 -1 1 0 0 Z " fill="#0E050D" transform="translate(193,56)"/>
<path d="M0 0 C1.27351308 2.54702616 0.80191925 3.4282945 0.0625 6.125 C-0.13214844 6.84945313 -0.32679688 7.57390625 -0.52734375 8.3203125 C-0.68332031 8.87460937 -0.83929688 9.42890625 -1 10 C-2.125 8.3125 -2.125 8.3125 -3 6 C-1.7 1.7 -1.7 1.7 0 0 Z " fill="#110B0E" transform="translate(327,356)"/>
<path d="M0 0 C3.63 0 7.26 0 11 0 C11 0.33 11 0.66 11 1 C9.35 1 7.7 1 6 1 C6 1.66 6 2.32 6 3 C5.01 3 4.02 3 3 3 C3 2.34 3 1.68 3 1 C2.01 0.67 1.02 0.34 0 0 Z " fill="#170915" transform="translate(283,396)"/>
<path d="M0 0 C2.64 0 5.28 0 8 0 C8 0.33 8 0.66 8 1 C5.36 1 2.72 1 0 1 C0 0.67 0 0.34 0 0 Z " fill="#000000" transform="translate(306,458)"/>
<path d="M0 0 C0.33 0 0.66 0 1 0 C1 2.64 1 5.28 1 8 C0.67 8 0.34 8 0 8 C0 5.36 0 2.72 0 0 Z " fill="#000000" transform="translate(373,407)"/>
<path d="M0 0 C0.99 0.495 0.99 0.495 2 1 C1.34 2.32 0.68 3.64 0 5 C0 3.35 0 1.7 0 0 Z " fill="#000000" transform="translate(372,446)"/>
<path d="M0 0 C0.33 0 0.66 0 1 0 C1 1.98 1 3.96 1 6 C0.67 6 0.34 6 0 6 C0 4.02 0 2.04 0 0 Z " fill="#000000" transform="translate(302,342)"/>
<path d="M0 0 C4 1 4 1 4 1 Z " fill="#000000" transform="translate(361,458)"/>
<path d="M0 0 C4 1 4 1 4 1 Z " fill="#000000" transform="translate(335,458)"/>
<path d="M0 0 C4 1 4 1 4 1 Z " fill="#000000" transform="translate(329,458)"/>
<path d="M0 0 C1 4 1 4 1 4 Z " fill="#000000" transform="translate(255,350)"/>
<path d="M0 0 C3 1 3 1 3 1 Z " fill="#000000" transform="translate(382,458)"/>
<path d="M0 0 C3 1 3 1 3 1 Z " fill="#000000" transform="translate(354,458)"/>
<path d="M0 0 C3 1 3 1 3 1 Z " fill="#000000" transform="translate(294,397)"/>
<path d="M0 0 C3 1 3 1 3 1 Z " fill="#000000" transform="translate(279,397)"/>
<path d="M0 0 C2 1 2 1 2 1 Z " fill="#000000" transform="translate(389,458)"/>
<path d="" fill="#000000" transform="translate(0,0)"/>
<path d="M0 0 C2 1 2 1 2 1 Z " fill="#000000" transform="translate(65,440)"/>
<path d="" fill="#000000" transform="translate(0,0)"/>
<path d="" fill="#000000" transform="translate(0,0)"/>
<path d="" fill="#000000" transform="translate(0,0)"/>
<path d="" fill="#000000" transform="translate(0,0)"/>
<path d="" fill="#000000" transform="translate(0,0)"/>
<path d="" fill="#000000" transform="translate(0,0)"/>
<path d="" fill="#000000" transform="translate(0,0)"/>
<path d="" fill="#000000" transform="translate(0,0)"/>
<path d="M0 0 C2 1 2 1 2 1 Z " fill="#000000" transform="translate(313,366)"/>
<path d="" fill="#000000" transform="translate(0,0)"/>
<path d="" fill="#000000" transform="translate(0,0)"/>
<path d="" fill="#000000" transform="translate(0,0)"/>
<path d="" fill="#000000" transform="translate(0,0)"/>
<path d="" fill="#000000" transform="translate(0,0)"/>
<path d="" fill="#000000" transform="translate(0,0)"/>
<path d="" fill="#000000" transform="translate(0,0)"/>
<path d="" fill="#000000" transform="translate(0,0)"/>
<path d="" fill="#000000" transform="translate(0,0)"/>
<path d="" fill="#000000" transform="translate(0,0)"/>
<path d="" fill="#000000" transform="translate(0,0)"/>
<path d="" fill="#000000" transform="translate(0,0)"/>
<path d="" fill="#000000" transform="translate(0,0)"/>
<path d="" fill="#000000" transform="translate(0,0)"/>
<path d="" fill="#000000" transform="translate(0,0)"/>
<path d="" fill="#000000" transform="translate(0,0)"/>
<path d="" fill="#000000" transform="translate(0,0)"/>
<path d="" fill="#000000" transform="translate(0,0)"/>
<path d="" fill="#000000" transform="translate(0,0)"/>
<path d="" fill="#000000" transform="translate(0,0)"/>
<path d="" fill="#000000" transform="translate(0,0)"/>
<path d="" fill="#000000" transform="translate(0,0)"/>
<path d="" fill="#000000" transform="translate(0,0)"/>
<path d="" fill="#000000" transform="translate(0,0)"/>
<path d="" fill="#000000" transform="translate(0,0)"/>
<path d="" fill="#000000" transform="translate(0,0)"/>
<path d="" fill="#000000" transform="translate(0,0)"/>
<path d="" fill="#000000" transform="translate(0,0)"/>
<path d="" fill="#000000" transform="translate(0,0)"/>
<path d="" fill="#000000" transform="translate(0,0)"/>
<path d="" fill="#000000" transform="translate(0,0)"/>
<path d="" fill="#000000" transform="translate(0,0)"/>
<path d="" fill="#000000" transform="translate(0,0)"/>
<path d="" fill="#000000" transform="translate(0,0)"/>
<path d="" fill="#000000" transform="translate(0,0)"/>
<path d="" fill="#000000" transform="translate(0,0)"/>
<path d="" fill="#000000" transform="translate(0,0)"/>
<path d="" fill="#000000" transform="translate(0,0)"/>
<path d="" fill="#000000" transform="translate(0,0)"/>
<path d="" fill="#000000" transform="translate(0,0)"/>
<path d="" fill="#000000" transform="translate(0,0)"/>
<path d="" fill="#000000" transform="translate(0,0)"/>
<path d="" fill="#000000" transform="translate(0,0)"/>
<path d="" fill="#000000" transform="translate(0,0)"/>
<path d="" fill="#000000" transform="translate(0,0)"/>
<path d="" fill="#000000" transform="translate(0,0)"/>
<path d="" fill="#000000" transform="translate(0,0)"/>
<path d="" fill="#000000" transform="translate(0,0)"/>
<path d="" fill="#000000" transform="translate(0,0)"/>
<path d="" fill="#000000" transform="translate(0,0)"/>
<path d="" fill="#000000" transform="translate(0,0)"/>
<path d="" fill="#000000" transform="translate(0,0)"/>
<path d="" fill="#000000" transform="translate(0,0)"/>
<path d="" fill="#000000" transform="translate(0,0)"/>
</svg>
