<?xml version="1.0" encoding="UTF-8"?>
<svg version="1.1" xmlns="http://www.w3.org/2000/svg" width="500" height="500">
<path d="M0 0 C3.09903387 1.38922208 3.46929488 3.43266669 4.6640625 6.5390625 C5.08558594 7.62445313 5.50710937 8.70984375 5.94140625 9.828125 C7.1293714 13.16795584 8.11295243 16.49457918 9.0390625 19.9140625 C9.70243767 21.24903651 10.36942131 22.58222058 11.0390625 23.9140625 C11.63270475 25.42301219 12.19516561 26.94458416 12.7265625 28.4765625 C12.99855469 29.24097656 13.27054688 30.00539063 13.55078125 30.79296875 C14.0390625 32.9140625 14.0390625 32.9140625 13.0390625 35.9140625 C14.0290625 36.7803125 14.0290625 36.7803125 15.0390625 37.6640625 C17.0390625 39.9140625 17.0390625 39.9140625 17.0390625 43.9140625 C17.6990625 44.2440625 18.3590625 44.5740625 19.0390625 44.9140625 C20.0576355 47.3425078 20.97630362 49.74675646 21.8515625 52.2265625 C22.38222452 53.69079054 22.91479639 55.15432774 23.44921875 56.6171875 C23.71492676 57.34486328 23.98063477 58.07253906 24.25439453 58.82226562 C25.35000596 61.74298707 26.56258264 64.60871049 27.7890625 67.4765625 C29.53635766 71.59080062 30.87247706 75.60667012 32.0390625 79.9140625 C32.98885147 82.06434554 32.98885147 82.06434554 34.0390625 83.9140625 C35.52161056 86.72849316 36.66434273 89.51970682 37.6640625 92.5390625 C37.92445313 93.31507812 38.18484375 94.09109375 38.453125 94.890625 C39.0390625 96.9140625 39.0390625 96.9140625 39.0390625 98.9140625 C39.6990625 99.2440625 40.3590625 99.5740625 41.0390625 99.9140625 C41.37833197 102.24654011 41.71146316 104.57991721 42.0390625 106.9140625 C42.6990625 107.5740625 43.3590625 108.2340625 44.0390625 108.9140625 C45.83618856 112.22077446 47.2365952 115.24564056 48.0390625 118.9140625 C48.4103125 119.9453125 48.7815625 120.9765625 49.1640625 122.0390625 C50.0390625 124.9140625 50.0390625 124.9140625 49.0390625 126.9140625 C49.6990625 126.9140625 50.3590625 126.9140625 51.0390625 126.9140625 C60.0390625 146.37216306 60.0390625 146.37216306 60.0390625 151.9140625 C60.6990625 152.5740625 61.3590625 153.2340625 62.0390625 153.9140625 C62.73164479 155.90523658 63.39653885 157.9061761 64.0390625 159.9140625 C64.3690625 160.5534375 64.6990625 161.1928125 65.0390625 161.8515625 C66.0390625 163.9140625 66.0390625 163.9140625 67.0390625 167.4765625 C67.87594747 170.99461127 67.87594747 170.99461127 70.0390625 173.9140625 C73.35513083 181.00576297 76.69708512 188.16041539 78.0390625 195.9140625 C77.7090625 196.5740625 77.3790625 197.2340625 77.0390625 197.9140625 C78.0290625 197.9140625 79.0190625 197.9140625 80.0390625 197.9140625 C80.1628125 198.4503125 80.2865625 198.9865625 80.4140625 199.5390625 C81.16167996 202.38000883 82.09344432 205.13283255 83.0390625 207.9140625 C83.3690625 208.9453125 83.6990625 209.9765625 84.0390625 211.0390625 C84.88857635 213.48141483 85.85764565 215.62506735 87.0390625 217.9140625 C89.0390625 222.58072917 89.0390625 222.58072917 89.0390625 224.9140625 C89.6990625 225.5740625 90.3590625 226.2340625 91.0390625 226.9140625 C91.2040625 227.9246875 91.3690625 228.9353125 91.5390625 229.9765625 C91.7040625 230.9459375 91.8690625 231.9153125 92.0390625 232.9140625 C92.6990625 233.2440625 93.3590625 233.5740625 94.0390625 233.9140625 C94.89282227 235.5246582 94.89282227 235.5246582 95.73046875 237.58984375 C96.18776367 238.70842773 96.18776367 238.70842773 96.65429688 239.84960938 C96.96689453 240.63400391 97.27949219 241.41839844 97.6015625 242.2265625 C98.07625977 243.38575195 98.07625977 243.38575195 98.56054688 244.56835938 C99.95193489 248.00399474 101.14713341 251.31531433 102.0390625 254.9140625 C102.6961734 256.25213107 103.36319539 257.5853692 104.0390625 258.9140625 C104.5650472 260.38418975 105.06468617 261.86398019 105.5390625 263.3515625 C106.80842168 267.24256301 108.08427737 271.07240583 109.97265625 274.71484375 C117.0390625 289.28768887 117.0390625 289.28768887 117.0390625 295.9140625 C117.6990625 296.2440625 118.3590625 296.5740625 119.0390625 296.9140625 C119.8203125 298.76953125 119.8203125 298.76953125 120.5390625 301.1015625 C121.40189546 303.88475189 122.29373857 306.56894381 123.3515625 309.2890625 C123.5784375 310.1553125 123.8053125 311.0215625 124.0390625 311.9140625 C121.77420159 315.31135386 121.32525254 315.40190736 117.5390625 316.1640625 C116.34796875 316.41929687 116.34796875 316.41929687 115.1328125 316.6796875 C113.0390625 316.9140625 113.0390625 316.9140625 111.0390625 315.9140625 C110.3790625 316.9040625 109.7190625 317.8940625 109.0390625 318.9140625 C108.0490625 319.2440625 107.0590625 319.5740625 106.0390625 319.9140625 C105.7090625 320.5740625 105.3790625 321.2340625 105.0390625 321.9140625 C103.06017289 322.64100154 101.05951692 323.31222501 99.0390625 323.9140625 C97.77668519 321.38930788 97.94049846 319.60205784 97.9765625 316.7890625 C97.98558594 315.87898438 97.99460937 314.96890625 98.00390625 314.03125 C98.02130859 312.98324219 98.02130859 312.98324219 98.0390625 311.9140625 C97.3790625 311.9140625 96.7190625 311.9140625 96.0390625 311.9140625 C95.8121875 311.1509375 95.5853125 310.3878125 95.3515625 309.6015625 C93.72929962 306.27978613 92.39250946 305.39581813 89.0390625 303.9140625 C86.49579142 303.24720312 86.49579142 303.24720312 84.0390625 303.9140625 C81.79714849 306.23727952 81.79714849 306.23727952 80.0390625 308.9140625 C79.3790625 309.5740625 78.7190625 310.2340625 78.0390625 310.9140625 C75.61272852 321.11365163 75.82527772 331.50986978 76.0390625 341.9140625 C76.0390625 342.5740625 76.0390625 343.2340625 76.0390625 343.9140625 C76.55611751 346.95556254 77.27099205 349.92712188 78.0390625 352.9140625 C78.4721875 354.615625 78.4721875 354.615625 78.9140625 356.3515625 C82.04399633 360.12589447 85.31874845 360.53147708 90.07421875 361.13671875 C93.55965324 360.87496675 94.52573012 360.26390953 96.7890625 357.6640625 C98.6530907 355.02575038 98.6530907 355.02575038 99.0390625 351.9140625 C99.6990625 351.9140625 100.3590625 351.9140625 101.0390625 351.9140625 C100.7090625 351.2540625 100.3790625 350.5940625 100.0390625 349.9140625 C99.8968637 346.07469482 99.86151574 342.59389611 101.0390625 338.9140625 C103.11459898 338.3605861 104.88272214 337.9140625 107.0390625 337.9140625 C107.3690625 338.5740625 107.6990625 339.2340625 108.0390625 339.9140625 C108.6990625 340.0790625 109.3590625 340.2440625 110.0390625 340.4140625 C110.6990625 340.5790625 111.3590625 340.7440625 112.0390625 340.9140625 C114.13069024 345.09731798 113.29537493 350.51696899 112.0390625 354.9140625 C111.3790625 355.5740625 110.7190625 356.2340625 110.0390625 356.9140625 C109.6265625 357.6771875 109.2140625 358.4403125 108.7890625 359.2265625 C106.57994564 362.61913483 104.28504853 364.49683886 101.0390625 366.9140625 C100.3790625 366.9140625 99.7190625 366.9140625 99.0390625 366.9140625 C98.7090625 367.5740625 98.3790625 368.2340625 98.0390625 368.9140625 C92.68566449 370.25674323 87.15266465 370.16858431 81.6640625 370.2265625 C80.7565625 370.25556641 79.8490625 370.28457031 78.9140625 370.31445312 C71.37478365 370.38506597 66.4115843 368.61630219 60.54296875 363.9140625 C59.90230469 363.2540625 59.26164063 362.5940625 58.6015625 361.9140625 C57.94285156 361.2540625 57.28414062 360.5940625 56.60546875 359.9140625 C54.93981748 357.78734567 54.62248813 356.5027073 54.0390625 353.9140625 C53.54720459 353.16882324 53.05534668 352.42358398 52.54858398 351.65576172 C49.87614084 346.80188228 50.33234389 341.47815743 50.1640625 336.0390625 C50.10476562 334.88019531 50.04546875 333.72132813 49.984375 332.52734375 C49.75115303 326.15018053 49.88372342 321.52173765 53.0390625 315.9140625 C53.6990625 315.9140625 54.3590625 315.9140625 55.0390625 315.9140625 C54.7090625 314.9240625 54.3790625 313.9340625 54.0390625 312.9140625 C54.9765625 310.2265625 54.9765625 310.2265625 56.0390625 307.9140625 C55.56597656 307.51316406 55.09289062 307.11226563 54.60546875 306.69921875 C52.72983647 304.56165278 52.44818733 303.13094377 51.9765625 300.3515625 C51.39303802 296.71770572 51.39303802 296.71770572 49.0390625 293.9140625 C48.8740625 292.9034375 48.7090625 291.8928125 48.5390625 290.8515625 C48.3740625 289.8821875 48.2090625 288.9128125 48.0390625 287.9140625 C47.3790625 287.5840625 46.7190625 287.2540625 46.0390625 286.9140625 C46.0390625 285.9240625 46.0390625 284.9340625 46.0390625 283.9140625 C45.26191895 283.92453613 44.48477539 283.93500977 43.68408203 283.94580078 C40.1774415 283.98726532 36.67085244 284.01335828 33.1640625 284.0390625 C31.94074219 284.05582031 30.71742188 284.07257813 29.45703125 284.08984375 C28.29042969 284.09628906 27.12382812 284.10273438 25.921875 284.109375 C24.84309082 284.11984863 23.76430664 284.13032227 22.65283203 284.14111328 C20.0390625 283.9140625 20.0390625 283.9140625 18.0390625 281.9140625 C17.7090625 282.5740625 17.3790625 283.2340625 17.0390625 283.9140625 C-4.0809375 284.2440625 -25.2009375 284.5740625 -46.9609375 284.9140625 C-48.2809375 288.2140625 -49.6009375 291.5140625 -50.9609375 294.9140625 C-52.9609375 299.9140625 -52.9609375 299.9140625 -54.0234375 301.9765625 C-55.04389658 303.90099562 -55.04389658 303.90099562 -55.4609375 306.1015625 C-55.6259375 306.6996875 -55.7909375 307.2978125 -55.9609375 307.9140625 C-56.6209375 308.2440625 -57.2809375 308.5740625 -57.9609375 308.9140625 C-58.30020697 311.24654011 -58.63333816 313.57991721 -58.9609375 315.9140625 C-59.6209375 316.5740625 -60.2809375 317.2340625 -60.9609375 317.9140625 C-61.49838634 319.47857325 -61.96993915 321.06627206 -62.3984375 322.6640625 C-63.53900201 326.6793151 -64.93312647 330.24469016 -66.9609375 333.9140625 C-67.6209375 333.9140625 -68.2809375 333.9140625 -68.9609375 333.9140625 C-68.74050781 334.42453125 -68.52007812 334.935 -68.29296875 335.4609375 C-67.8019614 339.08861533 -69.24639668 341.89330909 -70.6484375 345.1640625 C-70.9266333 345.83646973 -71.2048291 346.50887695 -71.49145508 347.20166016 C-73.19044061 351.25977479 -75.04876002 355.19422235 -77.09375 359.08984375 C-78.39156999 361.81994255 -79.27336176 364.65488507 -80.15234375 367.54296875 C-81.24428994 370.7449559 -82.61862282 373.81003045 -83.9609375 376.9140625 C-82.93553329 376.91267981 -82.93553329 376.91267981 -81.88941383 376.91126919 C-65.27341872 376.88920685 -48.65742823 376.87264747 -32.04142189 376.86225033 C-24.00612488 376.85708901 -15.97083762 376.85004942 -7.93554688 376.83862305 C-0.93386369 376.82867122 6.06781242 376.82220788 13.06950247 376.81997401 C16.77852543 376.81866775 20.48752816 376.81558725 24.19654465 376.80833244 C28.3320481 376.80030868 32.46751614 376.80007169 36.60302734 376.80053711 C37.83948502 376.79694183 39.07594269 376.79334656 40.34986877 376.78964233 C41.47170059 376.791017 42.59353241 376.79239166 43.74935913 376.79380798 C44.72830328 376.79288619 45.70724743 376.7919644 46.71585655 376.79101467 C49.0390625 376.9140625 49.0390625 376.9140625 51.0390625 377.9140625 C51.0390625 372.6340625 51.0390625 367.3540625 51.0390625 361.9140625 C56.0390625 360.9140625 56.0390625 360.9140625 57.89987183 362.0196991 C58.47802643 362.59609634 59.05618103 363.17249359 59.65185547 363.76635742 C60.31539032 364.414207 60.97892517 365.06205658 61.66256714 365.72953796 C62.71131516 366.80120964 62.71131516 366.80120964 63.78125 367.89453125 C64.50901642 368.61892899 65.23678284 369.34332672 65.98660278 370.0896759 C67.52181314 371.62518537 69.04955141 373.16819634 70.5703125 374.71801758 C72.90685351 377.0942311 75.27130515 379.43972235 77.640625 381.78320312 C79.12676018 383.27689662 80.61119507 384.77228414 82.09375 386.26953125 C82.80506073 386.97385788 83.51637146 387.67818451 84.24923706 388.40385437 C84.89385895 389.06746475 85.53848083 389.73107513 86.20263672 390.41479492 C86.77601776 390.99517014 87.3493988 391.57554535 87.94015503 392.17350769 C89.0390625 393.9140625 89.0390625 393.9140625 88.85305786 395.94917297 C86.52384585 401.57161814 81.57488687 405.13420886 77.0390625 408.9140625 C75.2933676 410.85652648 73.68240243 412.88151048 72.0390625 414.9140625 C69.8515625 417.2890625 69.8515625 417.2890625 68.0390625 418.9140625 C67.3790625 418.9140625 66.7190625 418.9140625 66.0390625 418.9140625 C65.7090625 419.9040625 65.3790625 420.8940625 65.0390625 421.9140625 C63.58014929 423.17845395 62.11653906 424.43905102 60.60546875 425.640625 C58.60790459 427.2645799 56.82334148 429.06115741 55.0390625 430.9140625 C53.7190625 430.2540625 52.3990625 429.5940625 51.0390625 428.9140625 C51.0390625 423.9640625 51.0390625 419.0140625 51.0390625 413.9140625 C-10.0109375 413.5840625 -71.0609375 413.2540625 -133.9609375 412.9140625 C-133.9609375 413.5740625 -133.9609375 414.2340625 -133.9609375 414.9140625 C-134.9509375 414.9140625 -135.9409375 414.9140625 -136.9609375 414.9140625 C-137.2909375 414.2540625 -137.6209375 413.5940625 -137.9609375 412.9140625 C-138.6828125 412.8109375 -139.4046875 412.7078125 -140.1484375 412.6015625 C-144.23263852 411.60320225 -146.01292141 409.9306371 -148.9609375 406.9140625 C-149.3359375 404.1015625 -149.3359375 404.1015625 -148.9609375 401.9140625 C-149.6209375 401.9140625 -150.2809375 401.9140625 -150.9609375 401.9140625 C-152.30858148 393.07950753 -152.30858148 393.07950753 -150.9609375 388.9140625 C-150.3009375 388.2540625 -149.6409375 387.5940625 -148.9609375 386.9140625 C-148.40152424 385.30854644 -147.90869726 383.67922597 -147.4609375 382.0390625 C-146.56466927 378.7754771 -145.54870037 375.90317074 -143.9609375 372.9140625 C-142.30584742 369.05218564 -141.01753194 365.09697008 -139.7421875 361.09765625 C-138.96625299 358.9289193 -138.00644166 356.96374654 -136.9609375 354.9140625 C-135.51747554 351.13356689 -134.11655036 347.33953563 -132.7265625 343.5390625 C-132.28828125 342.3634375 -131.85 341.1878125 -131.3984375 339.9765625 C-130.98464844 338.85378906 -130.57085937 337.73101562 -130.14453125 336.57421875 C-128.9609375 333.9140625 -128.9609375 333.9140625 -126.9609375 332.9140625 C-126.7959375 331.7590625 -126.6309375 330.6040625 -126.4609375 329.4140625 C-126.2959375 328.2590625 -126.1309375 327.1040625 -125.9609375 325.9140625 C-125.3009375 325.5840625 -124.6409375 325.2540625 -123.9609375 324.9140625 C-123.35491085 322.55210839 -123.35491085 322.55210839 -122.9609375 319.9140625 C-122.5234375 317.6640625 -122.5234375 317.6640625 -121.9609375 315.9140625 C-121.3009375 315.5840625 -120.6409375 315.2540625 -119.9609375 314.9140625 C-119.59222662 313.25486354 -119.26498428 311.58631979 -118.9609375 309.9140625 C-118.05415272 307.43551744 -117.07061603 305.12123306 -115.8359375 302.7890625 C-114.74949477 300.80582396 -114.74949477 300.80582396 -114.9609375 297.9140625 C-113.9709375 297.9140625 -112.9809375 297.9140625 -111.9609375 297.9140625 C-112.17363281 297.3778125 -112.38632813 296.8415625 -112.60546875 296.2890625 C-113.10545652 292.9484849 -112.00797905 290.9778181 -110.6484375 287.9140625 C-110.19855469 286.8828125 -109.74867187 285.8515625 -109.28515625 284.7890625 C-108.50748486 283.1006668 -107.70718972 281.42180974 -106.85546875 279.76953125 C-105.77425616 277.67180088 -105.77425616 277.67180088 -104.9609375 274.2265625 C-104.4659375 272.586875 -104.4659375 272.586875 -103.9609375 270.9140625 C-103.3009375 270.5840625 -102.6409375 270.2540625 -101.9609375 269.9140625 C-101.7959375 268.7590625 -101.6309375 267.6040625 -101.4609375 266.4140625 C-101.2959375 265.2590625 -101.1309375 264.1040625 -100.9609375 262.9140625 C-100.3009375 262.5840625 -99.6409375 262.2540625 -98.9609375 261.9140625 C-98.34728042 259.86030244 -98.34728042 259.86030244 -97.9609375 257.4765625 C-97.18011558 253.13324058 -97.18011558 253.13324058 -94.9609375 250.9140625 C-94.23660403 248.93421769 -93.58349778 246.92822812 -92.9609375 244.9140625 C-91.01381876 238.71126508 -88.70626481 232.8088516 -85.9609375 226.9140625 C-85.3009375 226.9140625 -84.6409375 226.9140625 -83.9609375 226.9140625 C-84.1878125 226.3778125 -84.4146875 225.8415625 -84.6484375 225.2890625 C-85.10284221 221.8355867 -83.59400257 219.93825708 -81.9609375 216.9140625 C-81.25929108 214.92606432 -80.58720878 212.92707733 -79.9609375 210.9140625 C-79.6309375 209.9240625 -79.3009375 208.9340625 -78.9609375 207.9140625 C-78.3009375 207.5840625 -77.6409375 207.2540625 -76.9609375 206.9140625 C-76.59222662 205.25486354 -76.26498428 203.58631979 -75.9609375 201.9140625 C-75.31032655 200.24106291 -74.64060426 198.57547013 -73.9609375 196.9140625 C-73.20396787 194.64722335 -72.46827348 192.37456718 -71.7421875 190.09765625 C-70.96526872 187.92616826 -70.00566923 185.96791012 -68.9609375 183.9140625 C-66.73803792 178.65204241 -64.72947795 173.34600818 -62.9609375 167.9140625 C-62.30682065 166.24243055 -61.64440432 164.57391048 -60.9609375 162.9140625 C-60.3009375 162.9140625 -59.6409375 162.9140625 -58.9609375 162.9140625 C-59.2909375 161.9240625 -59.6209375 160.9340625 -59.9609375 159.9140625 C-59.1484375 157.2890625 -59.1484375 157.2890625 -57.9609375 154.9140625 C-57.3009375 154.5840625 -56.6409375 154.2540625 -55.9609375 153.9140625 C-55.60174082 152.25277787 -55.27182118 150.58506227 -54.9609375 148.9140625 C-54.29427083 147.58072917 -53.62760417 146.24739583 -52.9609375 144.9140625 C-52.6309375 143.7590625 -52.3009375 142.6040625 -51.9609375 141.4140625 C-51.15500476 138.59329791 -50.25138288 136.49495327 -48.9609375 133.9140625 C-48.4659375 132.1196875 -48.4659375 132.1196875 -47.9609375 130.2890625 C-46.9609375 126.9140625 -46.9609375 126.9140625 -44.9609375 124.9140625 C-44.25187812 122.92869623 -43.59399571 120.92495328 -42.9609375 118.9140625 C-41.49282118 114.78746528 -39.91974045 110.8316684 -37.9609375 106.9140625 C-37.27132788 104.92185693 -36.60014693 102.92300644 -35.9609375 100.9140625 C-35.3009375 100.9140625 -34.6409375 100.9140625 -33.9609375 100.9140625 C-34.2703125 100.0478125 -34.2703125 100.0478125 -34.5859375 99.1640625 C-35.04755011 96.39438683 -34.39038695 95.26844983 -32.9609375 92.9140625 C-32.3009375 92.9140625 -31.6409375 92.9140625 -30.9609375 92.9140625 C-31.239375 91.4909375 -31.239375 91.4909375 -31.5234375 90.0390625 C-32.00007869 86.63448255 -31.61464803 86.07439869 -30.0234375 83.25 C-28.06334669 79.63247946 -26.73712762 76.59990537 -26.3359375 72.4765625 C-26.1503125 70.713125 -26.1503125 70.713125 -25.9609375 68.9140625 C-25.3009375 68.5840625 -24.6409375 68.2540625 -23.9609375 67.9140625 C-23.56329487 65.92584937 -23.23664889 63.92281692 -22.9609375 61.9140625 C-22.5234375 59.6015625 -22.5234375 59.6015625 -21.9609375 57.9140625 C-21.3009375 57.5840625 -20.6409375 57.2540625 -19.9609375 56.9140625 C-19.57857835 54.92285367 -19.2551997 52.92018335 -18.9609375 50.9140625 C-18.37654897 48.67390646 -17.75047515 46.44426373 -17.0859375 44.2265625 C-16.75851563 43.10894531 -16.43109375 41.99132812 -16.09375 40.83984375 C-15.00048767 38.01621106 -14.10359728 36.9192922 -11.9609375 34.9140625 C-12.26885442 33.2425135 -12.60480653 31.57600703 -12.9609375 29.9140625 C-12.1484375 27.5390625 -12.1484375 27.5390625 -10.9609375 24.9140625 C-10.27153941 22.58734396 -9.60626828 20.25338656 -8.9609375 17.9140625 C-6.48725329 9.18341235 -6.48725329 9.18341235 -4.8984375 5.3515625 C-3.84127781 3.03820943 -3.84127781 3.03820943 -3.9609375 0.9140625 C-1.9609375 -0.0859375 -1.9609375 -0.0859375 0 0 Z M-8.9609375 42.9140625 C-7.9609375 44.9140625 -7.9609375 44.9140625 -7.9609375 44.9140625 Z M-7.9609375 45.9140625 C-6.9609375 47.9140625 -6.9609375 47.9140625 -6.9609375 47.9140625 Z M20.0390625 51.9140625 C21.0390625 53.9140625 21.0390625 53.9140625 21.0390625 53.9140625 Z M-1.9609375 58.9140625 C-0.9609375 60.9140625 -0.9609375 60.9140625 -0.9609375 60.9140625 Z M5.0390625 76.9140625 C6.0390625 78.9140625 6.0390625 78.9140625 6.0390625 78.9140625 Z M9.0390625 89.9140625 C8.7090625 90.5740625 8.3790625 91.2340625 8.0390625 91.9140625 C8.6990625 92.5740625 9.3590625 93.2340625 10.0390625 93.9140625 C9.7090625 92.5940625 9.3790625 91.2740625 9.0390625 89.9140625 Z M12.0390625 94.9140625 C13.0390625 96.9140625 13.0390625 96.9140625 13.0390625 96.9140625 Z M13.0390625 102.9140625 C13.0390625 103.5740625 13.0390625 104.2340625 13.0390625 104.9140625 C14.0290625 104.5840625 15.0190625 104.2540625 16.0390625 103.9140625 C15.0490625 103.5840625 14.0590625 103.2540625 13.0390625 102.9140625 Z M26.0390625 129.9140625 C27.0390625 131.9140625 27.0390625 131.9140625 27.0390625 131.9140625 Z M27.0390625 137.9140625 C28.0390625 139.9140625 28.0390625 139.9140625 28.0390625 139.9140625 Z M29.0390625 137.9140625 C30.0390625 139.9140625 30.0390625 139.9140625 30.0390625 139.9140625 Z M-15.9609375 147.9140625 C-14.9609375 149.9140625 -14.9609375 149.9140625 -14.9609375 149.9140625 Z M31.0390625 147.9140625 C32.0390625 149.9140625 32.0390625 149.9140625 32.0390625 149.9140625 Z M33.0390625 147.9140625 C34.0390625 149.9140625 34.0390625 149.9140625 34.0390625 149.9140625 Z M34.0390625 155.9140625 C35.0390625 157.9140625 35.0390625 157.9140625 35.0390625 157.9140625 Z M37.0390625 157.9140625 C38.0390625 159.9140625 38.0390625 159.9140625 38.0390625 159.9140625 Z M-15.9609375 163.9140625 C-14.9609375 165.9140625 -14.9609375 165.9140625 -14.9609375 165.9140625 Z M-22.9609375 165.9140625 C-21.9609375 167.9140625 -21.9609375 167.9140625 -21.9609375 167.9140625 Z M-0.9609375 167.9140625 C-1.0640625 168.5534375 -1.1671875 169.1928125 -1.2734375 169.8515625 C-1.5003125 170.5321875 -1.7271875 171.2128125 -1.9609375 171.9140625 C-2.9509375 172.2440625 -3.9409375 172.5740625 -4.9609375 172.9140625 C-5.14849609 173.97753906 -5.14849609 173.97753906 -5.33984375 175.0625 C-5.98045273 178.00366072 -6.86672338 180.71255514 -7.8984375 183.5390625 C-8.23746094 184.48007813 -8.57648438 185.42109375 -8.92578125 186.390625 C-9.9609375 188.9140625 -9.9609375 188.9140625 -11.9609375 191.9140625 C-11.6309375 192.5740625 -11.3009375 193.2340625 -10.9609375 193.9140625 C-11.6209375 194.2440625 -12.2809375 194.5740625 -12.9609375 194.9140625 C-12.9609375 195.5740625 -12.9609375 196.2340625 -12.9609375 196.9140625 C-13.6209375 197.5740625 -14.2809375 198.2340625 -14.9609375 198.9140625 C-14.9609375 199.9040625 -14.9609375 200.8940625 -14.9609375 201.9140625 C-15.74469628 203.95463447 -16.58491041 205.97386723 -17.4609375 207.9765625 C-19.30433722 211.81484862 -19.30433722 211.81484862 -19.9609375 215.9140625 C-20.6209375 215.9140625 -21.2809375 215.9140625 -21.9609375 215.9140625 C-22.0434375 216.7390625 -22.1259375 217.5640625 -22.2109375 218.4140625 C-22.99270156 222.06229478 -24.26022585 224.76234756 -25.98046875 228.03515625 C-28.12805059 232.15064176 -29.52520214 236.51114072 -30.9609375 240.9140625 C-31.2909375 241.9040625 -31.6209375 242.8940625 -31.9609375 243.9140625 C-30.90891222 245.1898822 -30.90891222 245.1898822 -28.52488708 245.03431702 C-27.44344925 245.03209641 -26.36201141 245.02987579 -25.24780273 245.02758789 C-23.41601723 245.02747459 -23.41601723 245.02747459 -21.54722595 245.02735901 C-20.20466064 245.02225161 -18.86209575 245.01703561 -17.51953125 245.01171875 C-16.15332592 245.00985449 -14.78711993 245.00843063 -13.4209137 245.00743103 C-9.81892055 245.00360644 -6.2169675 244.99377667 -2.61499023 244.98272705 C1.05809995 244.97251166 4.73119659 244.96793314 8.40429688 244.96289062 C15.61590373 244.95215434 22.8274775 244.93507864 30.0390625 244.9140625 C30.6990625 246.2340625 31.3590625 247.5540625 32.0390625 248.9140625 C32.5340625 246.9340625 32.5340625 246.9340625 33.0390625 244.9140625 C32.3790625 244.9140625 31.7190625 244.9140625 31.0390625 244.9140625 C30.7915625 244.2746875 30.5440625 243.6353125 30.2890625 242.9765625 C29.25631908 240.44634111 28.16574007 237.96534281 27.0390625 235.4765625 C23.0390625 226.52133862 23.0390625 226.52133862 23.0390625 222.9140625 C22.3790625 222.9140625 21.7190625 222.9140625 21.0390625 222.9140625 C19.0390625 217.2890625 19.0390625 217.2890625 19.0390625 213.9140625 C18.0490625 213.4190625 18.0490625 213.4190625 17.0390625 212.9140625 C17.0390625 211.5940625 17.0390625 210.2740625 17.0390625 208.9140625 C16.3790625 208.9140625 15.7190625 208.9140625 15.0390625 208.9140625 C15.3690625 207.5940625 15.6990625 206.2740625 16.0390625 204.9140625 C15.3790625 204.9140625 14.7190625 204.9140625 14.0390625 204.9140625 C13.84570312 204.26179688 13.65234375 203.60953125 13.453125 202.9375 C10.96028683 194.1762324 10.96028683 194.1762324 7.4765625 185.7890625 C6.29452912 183.42499573 5.53359298 181.48562101 5.0390625 178.9140625 C4.3790625 178.9140625 3.7190625 178.9140625 3.0390625 178.9140625 C2.98298828 177.97433594 2.98298828 177.97433594 2.92578125 177.015625 C2.86003906 176.19835937 2.79429687 175.38109375 2.7265625 174.5390625 C2.66855469 173.72695312 2.61054688 172.91484375 2.55078125 172.078125 C2.20915722 169.53484912 2.20915722 169.53484912 -0.9609375 167.9140625 Z M70.0390625 177.9140625 C71.0390625 179.9140625 71.0390625 179.9140625 71.0390625 179.9140625 Z M-19.9609375 178.9140625 C-18.9609375 180.9140625 -18.9609375 180.9140625 -18.9609375 180.9140625 Z M-22.9609375 181.9140625 C-21.9609375 183.9140625 -21.9609375 183.9140625 -21.9609375 183.9140625 Z M45.0390625 182.9140625 C45.3690625 183.5740625 45.6990625 184.2340625 46.0390625 184.9140625 C46.3690625 184.2540625 46.6990625 183.5940625 47.0390625 182.9140625 C46.3790625 182.9140625 45.7190625 182.9140625 45.0390625 182.9140625 Z M-30.9609375 188.9140625 C-29.9609375 190.9140625 -29.9609375 190.9140625 -29.9609375 190.9140625 Z M-23.9609375 188.9140625 C-22.9609375 190.9140625 -22.9609375 190.9140625 -22.9609375 190.9140625 Z M-19.9609375 196.9140625 C-18.9609375 198.9140625 -18.9609375 198.9140625 -18.9609375 198.9140625 Z M51.0390625 198.9140625 C51.3690625 200.2340625 51.6990625 201.5540625 52.0390625 202.9140625 C52.3690625 201.5940625 52.6990625 200.2740625 53.0390625 198.9140625 C52.3790625 198.9140625 51.7190625 198.9140625 51.0390625 198.9140625 Z M-29.9609375 199.9140625 C-28.9609375 201.9140625 -28.9609375 201.9140625 -28.9609375 201.9140625 Z M-22.9609375 199.9140625 C-21.9609375 201.9140625 -21.9609375 201.9140625 -21.9609375 201.9140625 Z M55.0390625 202.9140625 C56.0390625 204.9140625 56.0390625 204.9140625 56.0390625 204.9140625 Z M48.0390625 205.9140625 C49.0390625 207.9140625 49.0390625 207.9140625 49.0390625 207.9140625 Z M-30.9609375 206.9140625 C-29.9609375 208.9140625 -29.9609375 208.9140625 -29.9609375 208.9140625 Z M-23.9609375 206.9140625 C-22.9609375 208.9140625 -22.9609375 208.9140625 -22.9609375 208.9140625 Z M-38.9609375 207.9140625 C-37.9609375 209.9140625 -37.9609375 209.9140625 -37.9609375 209.9140625 Z M-33.9609375 208.9140625 C-32.9609375 210.9140625 -32.9609375 210.9140625 -32.9609375 210.9140625 Z M-41.9609375 215.9140625 C-40.9609375 217.9140625 -40.9609375 217.9140625 -40.9609375 217.9140625 Z M-36.9609375 216.9140625 C-35.9609375 218.9140625 -35.9609375 218.9140625 -35.9609375 218.9140625 Z M-29.9609375 217.9140625 C-28.9609375 219.9140625 -28.9609375 219.9140625 -28.9609375 219.9140625 Z M41.0390625 220.9140625 C42.0390625 222.9140625 42.0390625 222.9140625 42.0390625 222.9140625 Z M62.0390625 220.9140625 C63.0390625 222.9140625 63.0390625 222.9140625 63.0390625 222.9140625 Z M-37.9609375 223.9140625 C-36.9609375 225.9140625 -36.9609375 225.9140625 -36.9609375 225.9140625 Z M-30.9609375 224.9140625 C-29.9609375 226.9140625 -29.9609375 226.9140625 -29.9609375 226.9140625 Z M-40.9609375 226.9140625 C-39.9609375 228.9140625 -39.9609375 228.9140625 -39.9609375 228.9140625 Z M38.0390625 228.9140625 C39.0390625 230.9140625 39.0390625 230.9140625 39.0390625 230.9140625 Z M65.0390625 228.9140625 C66.0390625 230.9140625 66.0390625 230.9140625 66.0390625 230.9140625 Z M-41.9609375 233.9140625 C-40.9609375 235.9140625 -40.9609375 235.9140625 -40.9609375 235.9140625 Z M-43.9609375 234.9140625 C-42.9609375 236.9140625 -42.9609375 236.9140625 -42.9609375 236.9140625 Z M34.0390625 238.9140625 C35.0390625 240.9140625 35.0390625 240.9140625 35.0390625 240.9140625 Z M95.0390625 240.9140625 C96.0390625 242.9140625 96.0390625 242.9140625 96.0390625 242.9140625 Z M-51.9609375 241.9140625 C-50.9609375 243.9140625 -50.9609375 243.9140625 -50.9609375 243.9140625 Z M-44.9609375 241.9140625 C-43.9609375 243.9140625 -43.9609375 243.9140625 -43.9609375 243.9140625 Z M33.0390625 242.9140625 C34.0390625 244.9140625 34.0390625 244.9140625 34.0390625 244.9140625 Z M-47.9609375 244.9140625 C-46.9609375 246.9140625 -46.9609375 246.9140625 -46.9609375 246.9140625 Z M-40.9609375 244.9140625 C-39.9609375 246.9140625 -39.9609375 246.9140625 -39.9609375 246.9140625 Z M73.0390625 247.9140625 C74.0390625 249.9140625 74.0390625 249.9140625 74.0390625 249.9140625 Z M30.0390625 250.9140625 C31.0390625 252.9140625 31.0390625 252.9140625 31.0390625 252.9140625 Z M76.0390625 255.9140625 C77.0390625 257.9140625 77.0390625 257.9140625 77.0390625 257.9140625 Z M-58.9609375 256.9140625 C-57.9609375 258.9140625 -57.9609375 258.9140625 -57.9609375 258.9140625 Z M-59.9609375 260.9140625 C-58.9609375 262.9140625 -58.9609375 262.9140625 -58.9609375 262.9140625 Z M77.0390625 263.9140625 C78.0390625 265.9140625 78.0390625 265.9140625 78.0390625 265.9140625 Z M-61.9609375 264.9140625 C-60.9609375 266.9140625 -60.9609375 266.9140625 -60.9609375 266.9140625 Z M80.0390625 265.9140625 C81.0390625 267.9140625 81.0390625 267.9140625 81.0390625 267.9140625 Z M-62.9609375 268.9140625 C-61.9609375 270.9140625 -61.9609375 270.9140625 -61.9609375 270.9140625 Z M20.0390625 273.9140625 C21.0390625 275.9140625 21.0390625 275.9140625 21.0390625 275.9140625 Z M81.0390625 273.9140625 C82.0390625 275.9140625 82.0390625 275.9140625 82.0390625 275.9140625 Z M83.0390625 273.9140625 C84.0390625 275.9140625 84.0390625 275.9140625 84.0390625 275.9140625 Z M84.0390625 281.9140625 C85.0390625 283.9140625 85.0390625 283.9140625 85.0390625 283.9140625 Z M87.0390625 283.9140625 C88.0390625 285.9140625 88.0390625 285.9140625 88.0390625 285.9140625 Z M-69.9609375 286.9140625 C-68.9609375 288.9140625 -68.9609375 288.9140625 -68.9609375 288.9140625 Z M-62.9609375 286.9140625 C-61.9609375 288.9140625 -61.9609375 288.9140625 -61.9609375 288.9140625 Z M-55.9609375 287.9140625 C-54.9609375 289.9140625 -54.9609375 289.9140625 -54.9609375 289.9140625 Z M89.0390625 290.9140625 C88.0490625 292.3990625 88.0490625 292.3990625 87.0390625 293.9140625 C88.3590625 293.9140625 89.6790625 293.9140625 91.0390625 293.9140625 C91.3690625 294.5740625 91.6990625 295.2340625 92.0390625 295.9140625 C93.89650457 296.52473394 93.89650457 296.52473394 96.0390625 296.9140625 C98.98764354 297.5211233 99.83853656 297.71353656 102.0390625 299.9140625 C103.69799432 301.25700731 105.36382855 302.59150938 107.0390625 303.9140625 C106.80664255 300.77639319 105.86480254 299.73063097 103.6640625 297.4140625 C99.37759974 294.02061281 94.18583255 292.55333624 89.0390625 290.9140625 Z M83.0390625 291.9140625 C82.7090625 292.5740625 82.3790625 293.2340625 82.0390625 293.9140625 C83.0290625 293.5840625 84.0190625 293.2540625 85.0390625 292.9140625 C84.3790625 292.5840625 83.7190625 292.2540625 83.0390625 291.9140625 Z M77.0390625 292.9140625 C77.0390625 293.5740625 77.0390625 294.2340625 77.0390625 294.9140625 C77.6990625 294.5840625 78.3590625 294.2540625 79.0390625 293.9140625 C78.3790625 293.5840625 77.7190625 293.2540625 77.0390625 292.9140625 Z M-68.9609375 297.9140625 C-67.9609375 299.9140625 -67.9609375 299.9140625 -67.9609375 299.9140625 Z M-61.9609375 297.9140625 C-60.9609375 299.9140625 -60.9609375 299.9140625 -60.9609375 299.9140625 Z M65.0390625 297.9140625 C66.0390625 299.9140625 66.0390625 299.9140625 66.0390625 299.9140625 Z M108.0390625 302.9140625 C109.0390625 304.9140625 109.0390625 304.9140625 109.0390625 304.9140625 Z M-69.9609375 304.9140625 C-68.9609375 306.9140625 -68.9609375 306.9140625 -68.9609375 306.9140625 Z M-62.9609375 304.9140625 C-61.9609375 306.9140625 -61.9609375 306.9140625 -61.9609375 306.9140625 Z M57.0390625 305.9140625 C58.0390625 307.9140625 58.0390625 307.9140625 58.0390625 307.9140625 Z M-79.9609375 309.9140625 C-78.9609375 311.9140625 -78.9609375 311.9140625 -78.9609375 311.9140625 Z M-69.9609375 322.9140625 C-68.9609375 324.9140625 -68.9609375 324.9140625 -68.9609375 324.9140625 Z M51.0390625 322.9140625 C52.0390625 325.9140625 52.0390625 325.9140625 52.0390625 325.9140625 Z M-72.9609375 325.9140625 C-71.9609375 327.9140625 -71.9609375 327.9140625 -71.9609375 327.9140625 Z M-86.9609375 327.9140625 C-85.9609375 329.9140625 -85.9609375 329.9140625 -85.9609375 329.9140625 Z M-89.9609375 335.9140625 C-88.9609375 337.9140625 -88.9609375 337.9140625 -88.9609375 337.9140625 Z M-130.9609375 340.9140625 C-129.9609375 342.9140625 -129.9609375 342.9140625 -129.9609375 342.9140625 Z M-76.9609375 340.9140625 C-75.9609375 342.9140625 -75.9609375 342.9140625 -75.9609375 342.9140625 Z M-92.9609375 343.9140625 C-91.9609375 345.9140625 -91.9609375 345.9140625 -91.9609375 345.9140625 Z M-72.9609375 343.9140625 C-71.9609375 345.9140625 -71.9609375 345.9140625 -71.9609375 345.9140625 Z M101.0390625 344.9140625 C102.0390625 347.9140625 102.0390625 347.9140625 102.0390625 347.9140625 Z M-90.9609375 352.9140625 C-89.9609375 354.9140625 -89.9609375 354.9140625 -89.9609375 354.9140625 Z M-83.9609375 353.9140625 C-82.9609375 355.9140625 -82.9609375 355.9140625 -82.9609375 355.9140625 Z M-97.9609375 354.9140625 C-96.9609375 356.9140625 -96.9609375 356.9140625 -96.9609375 356.9140625 Z M-98.9609375 359.9140625 C-97.9609375 361.9140625 -97.9609375 361.9140625 -97.9609375 361.9140625 Z M-94.9609375 367.9140625 C-93.9609375 369.9140625 -93.9609375 369.9140625 -93.9609375 369.9140625 Z M-97.9609375 370.9140625 C-96.9609375 372.9140625 -96.9609375 372.9140625 -96.9609375 372.9140625 Z " fill="#FDFCFC" transform="translate(204.9609375,27.0859375)"/>
<path d="M0 0 C2.77141717 -0.08089542 5.54047819 -0.14044062 8.3125 -0.1875 C9.09818359 -0.21263672 9.88386719 -0.23777344 10.69335938 -0.26367188 C11.45068359 -0.27333984 12.20800781 -0.28300781 12.98828125 -0.29296875 C14.03302612 -0.31653442 14.03302612 -0.31653442 15.09887695 -0.34057617 C17.60718396 0.10877381 18.48831511 0.98018574 20 3 C20 3.99 20 4.98 20 6 C20.66 6.66 21.32 7.32 22 8 C22.59765625 10.27734375 22.59765625 10.27734375 23.0625 12.9375 C23.71902782 16.62165199 24.49063204 19.89137561 26.0625 23.3125 C27.12153112 26.34838922 27 28.80966967 27 32 C27.66 32.66 28.32 33.32 29 34 C29.66796875 36.05859375 29.66796875 36.05859375 30.1875 38.4375 C30.36667969 39.21996094 30.54585938 40.00242187 30.73046875 40.80859375 C31 43 31 43 30 46 C31.485 46.495 31.485 46.495 33 47 C33.495 51.95 33.495 51.95 34 57 C34.66 57 35.32 57 36 57 C36.12117188 57.81984375 36.24234375 58.6396875 36.3671875 59.484375 C36.53476562 60.56203125 36.70234375 61.6396875 36.875 62.75 C37.03742188 63.81734375 37.19984375 64.8846875 37.3671875 65.984375 C37.93744157 68.70188205 38.74137475 70.56736297 40 73 C40 73.99 40 74.98 40 76 C40.95093297 77.69514137 41.95107762 79.36368108 43 81 C45.04222462 85.08444924 44.61793102 90.02194909 43.28125 94.30078125 C41.83487389 97.49097371 40.73343543 99.53141626 37.75 101.4375 C34.17048627 102.16967326 30.63618601 102.63021837 27 103 C27.639375 103.515625 28.27875 104.03125 28.9375 104.5625 C31.61486272 107.72665594 31.85354448 109.89924558 32 114 C31.443125 115.051875 31.443125 115.051875 30.875 116.125 C30.58625 116.74375 30.2975 117.3625 30 118 C30.474375 118.78375 30.94875 119.5675 31.4375 120.375 C33 123 33 123 32.9375 126 C31.85220817 129.47293387 30.56814491 131.43185509 28 134 C24.97182274 135.04621575 22.12422512 135.13461305 18.9375 135.125 C17.65166016 135.12886719 17.65166016 135.12886719 16.33984375 135.1328125 C11.33297911 134.84861651 9.32534342 132.50509171 6 129 C5.34 129.33 4.68 129.66 4 130 C4 130.66 4 131.32 4 132 C3.34 132 2.68 132 2 132 C1.67 132.66 1.34 133.32 1 134 C-2.45899514 135.72949757 -6.21119971 135.35022524 -10 135 C-13.84541287 133.67158465 -15.48192744 133.03614513 -17.3125 129.375 C-17.539375 128.59125 -17.76625 127.8075 -18 127 C-18.495 126.505 -18.495 126.505 -19 126 C-19.07325168 123.13732433 -19.09238205 120.299281 -19.0625 117.4375 C-19.05798828 116.63119141 -19.05347656 115.82488281 -19.04882812 114.99414062 C-19.03700518 112.99606244 -19.01906914 110.99802217 -19 109 C-20.32 109 -21.64 109 -23 109 C-22.98428955 109.71655762 -22.9685791 110.43311523 -22.95239258 111.17138672 C-22.89018137 114.40584476 -22.85105351 117.64017719 -22.8125 120.875 C-22.78736328 122.00292969 -22.76222656 123.13085938 -22.73632812 124.29296875 C-22.72666016 125.36933594 -22.71699219 126.44570313 -22.70703125 127.5546875 C-22.6913208 128.54968262 -22.67561035 129.54467773 -22.65942383 130.56982422 C-22.77181396 131.37178223 -22.8842041 132.17374023 -23 133 C-26.67346771 135.44897847 -28.66356399 135.31537716 -33 135 C-35.56136221 132.43863779 -35.29666857 131.33438669 -35.4140625 127.7734375 C-35.45273437 126.7421875 -35.49140625 125.7109375 -35.53125 124.6484375 C-35.5621875 123.56820312 -35.593125 122.48796875 -35.625 121.375 C-35.66367187 120.28703125 -35.70234375 119.1990625 -35.7421875 118.078125 C-35.83666247 115.38558835 -35.92222431 112.69306243 -36 110 C-37.21042969 109.58427734 -37.21042969 109.58427734 -38.4453125 109.16015625 C-39.28835938 108.77730469 -40.13140625 108.39445312 -41 108 C-41.875 105.4375 -41.875 105.4375 -42 103 C-39.36476862 100.36476862 -34.70828466 101.37082847 -31 101 C-31 92.42 -31 83.84 -31 75 C-27.04 74.01 -27.04 74.01 -23 73 C-22.855625 72.071875 -22.71125 71.14375 -22.5625 70.1875 C-22 67 -22 67 -21 64 C-20.32811503 61.66816393 -19.66084583 59.33498858 -19 57 C-18.34 57 -17.68 57 -17 57 C-17.19078125 56.41347656 -17.3815625 55.82695312 -17.578125 55.22265625 C-18.15289426 52.19447378 -17.04068322 50.14554032 -15.8984375 47.36328125 C-14.52834825 43.75935082 -13.61442766 40.04924226 -12.6484375 36.3203125 C-12 34 -12 34 -11 32 C-9.86172774 28.58518321 -9.22274295 25.1846771 -8.55859375 21.65234375 C-8.00697375 19.03311314 -7.32749134 16.50200465 -6.5625 13.9375 C-6.31628906 13.10089844 -6.07007813 12.26429688 -5.81640625 11.40234375 C-5 9 -5 9 -3.90234375 6.81640625 C-2.85169969 5.03950512 -2.85169969 5.03950512 -3 3 C-2.34 3 -1.68 3 -1 3 C-0.67 2.01 -0.34 1.02 0 0 Z M1 24 C2 27 2 27 2 27 Z M2 28 C1.87625 28.639375 1.7525 29.27875 1.625 29.9375 C1.41875 30.618125 1.2125 31.29875 1 32 C0.01 32.495 0.01 32.495 -1 33 C-1.65417809 35.24810177 -1.65417809 35.24810177 -2.0625 37.875 C-2.56270702 40.7108844 -3.08689283 43.26067849 -4 46 C-3.67 46.66 -3.34 47.32 -3 48 C0.63 48 4.26 48 8 48 C8 46.35 8 44.7 8 43 C7.34 43 6.68 43 6 43 C6.33 42.01 6.66 41.02 7 40 C6.46832218 38.04651417 6.46832218 38.04651417 5.5625 36.0625 C4.21847257 32.93447202 4 31.60334675 4 28 C3.34 28 2.68 28 2 28 Z M4 30 C5 32 5 32 5 32 Z M-7 59 C-7 59.66 -7 60.32 -7 61 C-7.99 61.495 -7.99 61.495 -9 62 C-9 63.65 -9 65.3 -9 67 C-9.99 67.495 -9.99 67.495 -11 68 C-10.67 69.32 -10.34 70.64 -10 72 C-10.99 72.33 -11.98 72.66 -13 73 C-13 73.33 -13 73.66 -13 74 C-11.56274129 74.16873478 -10.12518162 74.33490737 -8.6875 74.5 C-7.88699219 74.5928125 -7.08648437 74.685625 -6.26171875 74.78125 C-3.1448502 75.08270879 -0.10588839 74.96877524 3.01171875 74.78125 C3.76904297 74.73613281 4.52636719 74.69101562 5.30664062 74.64453125 C6.09232422 74.59683594 6.87800781 74.54914063 7.6875 74.5 C8.48478516 74.45230469 9.28207031 74.40460938 10.10351562 74.35546875 C12.06905803 74.2377716 14.03453546 74.11899029 16 74 C15.67 71.69 15.34 69.38 15 67 C14.34 67 13.68 67 13 67 C13.33 66.01 13.66 65.02 14 64 C13.34 64 12.68 64 12 64 C11.67 62.35 11.34 60.7 11 59 C5.06 59 -0.88 59 -7 59 Z M-19 75 C-19.77242269 76.83700789 -19.77242269 76.83700789 -20 79 C-18.64555699 80.77190909 -18.64555699 80.77190909 -17 82 C-16.34 81.67 -15.68 81.34 -15 81 C-15.33 79.68 -15.66 78.36 -16 77 C-15.34 76.67 -14.68 76.34 -14 76 C-15.65 75.67 -17.3 75.34 -19 75 Z M12.9375 77.5 C11.638125 77.665 10.33875 77.83 9 78 C9 79.65 9 81.3 9 83 C10.1446875 83.2165625 10.1446875 83.2165625 11.3125 83.4375 C14 84 14 84 17 85 C17 85.99 17 86.98 17 88 C16.34 88 15.68 88 15 88 C15 88.66 15 89.32 15 90 C13.02 90 11.04 90 9 90 C9 91.98 9 93.96 9 96 C11.97 96 14.94 96 18 96 C18 89.73 18 83.46 18 77 C16.29869234 77 14.62353028 77.28590092 12.9375 77.5 Z M28 78 C27.97309896 80.79173055 27.95320947 83.58320348 27.9375 86.375 C27.92912109 87.1690625 27.92074219 87.963125 27.91210938 88.78125 C27.76959849 93.02392222 27.76959849 93.02392222 29 97 C29.66 97 30.32 97 31 97 C33.35641524 95.08593338 33.35641524 95.08593338 33.1953125 91.7421875 C33.17210937 90.46601563 33.14890625 89.18984375 33.125 87.875 C33.09792969 85.95300781 33.09792969 85.95300781 33.0703125 83.9921875 C33.04710937 83.00476563 33.02390625 82.01734375 33 81 C32.34 81 31.68 81 31 81 C31.33 80.01 31.66 79.02 32 78 C30.68 78 29.36 78 28 78 Z M-26 89 C-25 92 -25 92 -25 92 Z M-26 94 C-26 96.64 -26 99.28 -26 102 C-24.68 102 -23.36 102 -22 102 C-22 101.34 -22 100.68 -22 100 C-22.66 100 -23.32 100 -24 100 C-24.33 98.02 -24.66 96.04 -25 94 C-25.33 94 -25.66 94 -26 94 Z M-14 96 C-14 96.99 -14 97.98 -14 99 C-14.66 99 -15.32 99 -16 99 C-16.33 99.99 -16.66 100.98 -17 102 C-15.35 102 -13.7 102 -12 102 C-12.33 100.02 -12.66 98.04 -13 96 C-13.33 96 -13.66 96 -14 96 Z M-8 102 C-7.9278125 102.67804688 -7.855625 103.35609375 -7.78125 104.0546875 C-7.22031595 109.67960951 -6.95927261 115.17789977 -7.03125 120.828125 C-6.99551984 123.31137127 -6.63977579 125.60084079 -6 128 C-4.33388095 128.042721 -2.66617115 128.04063832 -1 128 C0.2505313 126.97285339 0.2505313 126.97285339 0.11352539 124.77514648 C0.10828857 123.81680908 0.10305176 122.85847168 0.09765625 121.87109375 C0.09443359 120.83662109 0.09121094 119.80214844 0.08789062 118.73632812 C0.07951172 117.64771484 0.07113281 116.55910156 0.0625 115.4375 C0.05798828 114.34501953 0.05347656 113.25253906 0.04882812 112.12695312 C0.03699826 109.41791505 0.02051543 106.70898401 0 104 C0.66 104 1.32 104 2 104 C2 103.34 2 102.68 2 102 C-1.73567172 101.23588533 -4.34811918 100.92825237 -8 102 Z M6 102 C6 109.92 6 117.84 6 126 C6.495 124.515 6.495 124.515 7 123 C10.465 122.505 10.465 122.505 14 122 C13.7215625 121.13375 13.7215625 121.13375 13.4375 120.25 C12.95976454 117.79307475 13.24270636 116.35602466 14 114 C12.35 114 10.7 114 9 114 C8.6875 111.3125 8.6875 111.3125 9 108 C11.5 105.1875 11.5 105.1875 14 103 C14 102.67 14 102.34 14 102 C11.36 102 8.72 102 6 102 Z M17 102 C17 102.33 17 102.66 17 103 C18.65 103 20.3 103 22 103 C22 102.67 22 102.34 22 102 C20.35 102 18.7 102 17 102 Z M15 109 C14.67 110.65 14.34 112.3 14 114 C15.65 114 17.3 114 19 114 C19.66 112.68 20.32 111.36 21 110 C19.93354885 108.70366379 19.93354885 108.70366379 17.4375 108.9375 C16.633125 108.958125 15.82875 108.97875 15 109 Z M14 122 C14.66 124.31 15.32 126.62 16 129 C17.65 128.67 19.3 128.34 21 128 C20.67 126.02 20.34 124.04 20 122 C18.02 122 16.04 122 14 122 Z " fill="#FBF9F9" transform="translate(338,322)"/>
<path d="M0 0 C1.01507629 0.00424484 1.01507629 0.00424484 2.05065918 0.00857544 C4.21103716 0.0197541 6.37099801 0.04482989 8.53125 0.0703125 C9.98567102 0.08034745 11.44009863 0.08947241 12.89453125 0.09765625 C16.606887 0.12039697 20.31901408 0.15777433 24.03125 0.1953125 C25.02125 0.1953125 26.01125 0.1953125 27.03125 0.1953125 C27.69125 0.1953125 28.35125 0.1953125 29.03125 0.1953125 C29.03125 0.8553125 29.03125 1.5153125 29.03125 2.1953125 C29.90136719 2.23398437 29.90136719 2.23398437 30.7890625 2.2734375 C36.39293771 2.68031953 39.67809174 3.60395693 44.03125 7.1953125 C44.52625 8.1853125 44.52625 8.1853125 45.03125 9.1953125 C45.815 9.9378125 46.59875 10.6803125 47.40625 11.4453125 C55.28605057 19.70034167 55.25801673 30.47023367 55.19921875 41.2890625 C55.03125 44.1953125 55.03125 44.1953125 54.03125 46.1953125 C53.87902386 47.63018478 53.75785069 49.0684694 53.65625 50.5078125 C53.26364452 54.45286437 52.34636182 56.91557075 50.03125 60.1953125 C49.70125 61.1853125 49.37125 62.1753125 49.03125 63.1953125 C47.05168058 64.88619472 45.05179804 66.55361722 43.03125 68.1953125 C42.70125 68.8553125 42.37125 69.5153125 42.03125 70.1953125 C39.921875 71.23046875 39.921875 71.23046875 37.28125 72.2578125 C35.98960937 72.77021484 35.98960937 72.77021484 34.671875 73.29296875 C29.44074941 75.08052794 24.45306075 75.36659374 18.95703125 75.3984375 C18.19198776 75.40413757 17.42694427 75.40983765 16.63871765 75.41571045 C15.02925994 75.42512014 13.41978331 75.43167832 11.81030273 75.43554688 C9.34130023 75.4453222 6.87310679 75.47640957 4.40429688 75.5078125 C2.8385466 75.51433658 1.27279039 75.51958938 -0.29296875 75.5234375 C-1.03254318 75.5357843 -1.77211761 75.5481311 -2.53410339 75.56085205 C-4.6081543 75.55175781 -4.6081543 75.55175781 -7.96875 75.1953125 C-10.39964425 71.54897112 -10.22714389 69.80564666 -10.2434082 65.46069336 C-10.24851913 64.78071793 -10.25363007 64.10074249 -10.25889587 63.40016174 C-10.2727923 61.15340366 -10.27183556 58.90695219 -10.26953125 56.66015625 C-10.2734173 55.09981675 -10.27775178 53.5394783 -10.28251648 51.97914124 C-10.28997815 48.7099362 -10.2896872 45.44083917 -10.28442383 42.17163086 C-10.27861994 37.97582917 -10.29558224 33.78046759 -10.3187685 29.58473873 C-10.3334745 26.36346337 -10.33438201 23.14229488 -10.33125877 19.9209919 C-10.33177327 18.37358285 -10.33703489 16.82616802 -10.34707069 15.27879143 C-10.35936184 13.11907877 -10.35268944 10.96023509 -10.34106445 8.80053711 C-10.34169388 7.57048447 -10.3423233 6.34043182 -10.3429718 5.07310486 C-10.21947861 4.12343338 -10.09598541 3.1737619 -9.96875 2.1953125 C-6.26477489 -0.27400424 -4.41526394 -0.03658748 0 0 Z M15.03125 10.1953125 C15.03125 28.6753125 15.03125 47.1553125 15.03125 66.1953125 C20.67928528 66.20887737 20.67928528 66.20887737 25.03125 63.1953125 C26.82226743 59.93370056 26.82226743 59.93370056 28.03125 56.1953125 C28.38445312 55.21304688 28.73765625 54.23078125 29.1015625 53.21875 C30.58863794 47.93573731 30.2814195 42.51266377 30.21875 37.0703125 C30.21810547 35.99910156 30.21746094 34.92789063 30.21679688 33.82421875 C30.17136444 25.7170536 29.64338537 19.11351556 25.03125 12.1953125 C21.66144987 9.54816227 21.66144987 9.54816227 15.03125 10.1953125 Z M28.03125 56.1953125 C29.03125 58.1953125 29.03125 58.1953125 29.03125 58.1953125 Z " fill="#FCFBFB" transform="translate(388.96875,321.8046875)"/>
<path d="M0 0 C0.91007812 0.00902344 1.82015625 0.01804687 2.7578125 0.02734375 C3.80582031 0.04474609 3.80582031 0.04474609 4.875 0.0625 C5.535 1.3825 6.195 2.7025 6.875 4.0625 C7.865 4.0625 8.855 4.0625 9.875 4.0625 C9.73191406 4.96742188 9.73191406 4.96742188 9.5859375 5.890625 C9.41964844 7.08945312 9.41964844 7.08945312 9.25 8.3125 C9.13398438 9.10140625 9.01796875 9.8903125 8.8984375 10.703125 C8.87129065 13.43590798 9.6258817 14.67106533 10.875 17.0625 C11.39993206 20.46074442 11.42463006 23.6657862 10.875 27.0625 C8.34823961 30.40875024 6.83566458 31.74227847 2.875 33.0625 C0.9375 33.1953125 0.9375 33.1953125 -1.125 33.1875 C-2.1459375 33.19136719 -2.1459375 33.19136719 -3.1875 33.1953125 C-5.125 33.0625 -5.125 33.0625 -8.125 32.0625 C-8.125 31.4025 -8.125 30.7425 -8.125 30.0625 C-9.115 29.7325 -10.105 29.4025 -11.125 29.0625 C-11.455 28.0725 -11.785 27.0825 -12.125 26.0625 C-12.785 25.4025 -13.445 24.7425 -14.125 24.0625 C-16.02745976 18.35512073 -15.34308246 13.38452366 -13.1171875 7.92578125 C-9.99666346 2.06558452 -6.32492876 -0.08108883 0 0 Z M-0.125 5.0625 C-0.785 6.3825 -1.445 7.7025 -2.125 9.0625 C-1.465 9.7225 -0.805 10.3825 -0.125 11.0625 C0.865 11.0625 1.855 11.0625 2.875 11.0625 C3.205 9.7425 3.535 8.4225 3.875 7.0625 C3.215 7.0625 2.555 7.0625 1.875 7.0625 C1.875 6.4025 1.875 5.7425 1.875 5.0625 C1.215 5.0625 0.555 5.0625 -0.125 5.0625 Z M-3.125 18.0625 C-4.48118499 19.18784105 -4.48118499 19.18784105 -4.1875 22.125 C-4.166875 23.094375 -4.14625 24.06375 -4.125 25.0625 C-2.805 25.0625 -1.485 25.0625 -0.125 25.0625 C-0.125 22.7525 -0.125 20.4425 -0.125 18.0625 C-1.115 18.0625 -2.105 18.0625 -3.125 18.0625 Z " fill="#FBF8F8" transform="translate(386.125,423.9375)"/>
<path d="M0 0 C62.37 0 124.74 0 189 0 C189 5.28 189 10.56 189 16 C189.66 16 190.32 16 191 16 C190.67 16.99 190.34 17.98 190 19 C188.02 18.01 188.02 18.01 186 17 C186 12.05 186 7.1 186 2 C124.62 1.67 63.24 1.34 0 1 C0 0.67 0 0.34 0 0 Z " fill="#FBF4F3" transform="translate(70,439)"/>
<path d="M0 0 C5.62679241 1.12535848 5.62679241 1.12535848 8.52099609 3.98754883 C9.16451019 4.61522659 9.80802429 5.24290436 10.47103882 5.88960266 C11.14833038 6.5718541 11.82562195 7.25410553 12.5234375 7.95703125 C13.58179306 9.00608894 13.58179306 9.00608894 14.66152954 10.07633972 C16.14736051 11.55507589 17.62808174 13.03896166 19.10400391 14.52758789 C21.3720417 16.80952357 23.66308423 19.06641179 25.95703125 21.32226562 C27.39728557 22.7615691 28.83613747 24.20227758 30.2734375 25.64453125 C31.30759293 26.65879936 31.30759293 26.65879936 32.36264038 27.69355774 C32.98724152 28.33069199 33.61184265 28.96782623 34.25537109 29.62426758 C34.81098724 30.18084549 35.36660339 30.7374234 35.9390564 31.31086731 C37 33 37 33 36.67153931 35.21098328 C36.44993134 35.8013588 36.22832336 36.39173431 36 37 C35.01 36.505 35.01 36.505 34 36 C34 34.68 34 33.36 34 32 C33.01 31.67 32.02 31.34 31 31 C29.703125 29.6796875 29.703125 29.6796875 28.25 27.875 C24.54360667 23.51267779 20.59237221 19.43571814 16.5625 15.375 C15.94213867 14.74190918 15.32177734 14.10881836 14.68261719 13.45654297 C10.40307967 9.16692805 5.91858214 5.54050763 1 2 C1 6.95 1 11.9 1 17 C0.67 17 0.34 17 0 17 C0 11.39 0 5.78 0 0 Z " fill="#F0E6E1" transform="translate(257,388)"/>
<path d="M0 0 C4.47145548 4.47145548 4.14450479 10.32388161 4.1875 16.3125 C4.15359828 22.69280344 4.15359828 22.69280344 3 25 C3 26.32 3 27.64 3 29 C2.34 29 1.68 29 1 29 C0.67 19.43 0.34 9.86 0 0 Z " fill="#F8F2EF" transform="translate(440,343)"/>
<path d="M0 0 C1.32 0 2.64 0 4 0 C4 7.92 4 15.84 4 24 C3.67 24 3.34 24 3 24 C3 16.74 3 9.48 3 2 C2.34 2 1.68 2 1 2 C1.01160156 2.78503906 1.02320313 3.57007813 1.03515625 4.37890625 C1.08375507 10.03719775 1.01294749 15.42878878 0 21 C-0.33 21 -0.66 21 -1 21 C-1.02888146 17.68751813 -1.04675799 14.37506833 -1.0625 11.0625 C-1.07087891 10.11697266 -1.07925781 9.17144531 -1.08789062 8.19726562 C-1.09111328 7.29814453 -1.09433594 6.39902344 -1.09765625 5.47265625 C-1.10289307 4.64000244 -1.10812988 3.80734863 -1.11352539 2.94946289 C-1 1 -1 1 0 0 Z " fill="#EDE4E4" transform="translate(340,425)"/>
<path d="M0 0 C0.33 0 0.66 0 1 0 C2.03590199 5.05002222 2.10251672 9.87416389 2 15 C2.66 15 3.32 15 4 15 C3.67 15.99 3.34 16.98 3 18 C1.68 17.34 0.36 16.68 -1 16 C-1.02685095 13.52076199 -1.04676547 11.0418116 -1.0625 8.5625 C-1.07506836 7.50192383 -1.07506836 7.50192383 -1.08789062 6.41992188 C-1.09653588 4.61306441 -1.05220011 2.80612397 -1 1 C-0.67 0.67 -0.34 0.34 0 0 Z " fill="#F1ECEB" transform="translate(257,440)"/>
<path d="M0 0 C15.18 0 30.36 0 46 0 C46 0.33 46 0.66 46 1 C30.82 1 15.64 1 0 1 C0 0.67 0 0.34 0 0 Z " fill="#B1B3B5" transform="translate(452,0)"/>
<path d="M0 0 C11.88 0 23.76 0 36 0 C36 0.33 36 0.66 36 1 C24.12 1 12.24 1 0 1 C0 0.67 0 0.34 0 0 Z " fill="#FFFFFF" transform="translate(415,0)"/>
<path d="M0 0 C3.4375 0.8125 3.4375 0.8125 7 2 C7.33 2.99 7.66 3.98 8 5 C5.03 4.01 2.06 3.02 -1 2 C-0.67 1.34 -0.34 0.68 0 0 Z " fill="#EAE5E3" transform="translate(422,324)"/>
<path d="M0 0 C1.65 0 3.3 0 5 0 C4.01 0.33 3.02 0.66 2 1 C1.32843384 2.93618425 1.32843384 2.93618425 1 5 C0.67 5.66 0.34 6.32 0 7 C-0.66 7 -1.32 7 -2 7 C-1.34 4.69 -0.68 2.38 0 0 Z " fill="#F0E8E8" transform="translate(193,61)"/>
<path d="M0 0 C4.29 0 8.58 0 13 0 C13 0.33 13 0.66 13 1 C8.71 1 4.42 1 0 1 C0 0.67 0 0.34 0 0 Z " fill="#F6F6F6" transform="translate(246,0)"/>
<path d="M0 0 C0.33 0 0.66 0 1 0 C1 2.64 1 5.28 1 8 C0.67 8 0.34 8 0 8 C0 5.36 0 2.72 0 0 Z " fill="#FFFFFF" transform="translate(302,341)"/>
<path d="M0 0 C0.33 0 0.66 0 1 0 C1 2.31 1 4.62 1 7 C0.67 7 0.34 7 0 7 C0 4.69 0 2.38 0 0 Z " fill="#FFFFFF" transform="translate(397,442)"/>
<path d="M0 0 C0.33 0 0.66 0 1 0 C1 1.98 1 3.96 1 6 C0.67 6 0.34 6 0 6 C0 4.02 0 2.04 0 0 Z " fill="#FFFFFF" transform="translate(383,443)"/>
<path d="M0 0 C1.98 0 3.96 0 6 0 C6 0.33 6 0.66 6 1 C4.02 1 2.04 1 0 1 C0 0.67 0 0.34 0 0 Z " fill="#FFFFFF" transform="translate(260,0)"/>
<path d="M0 0 C4 1 4 1 4 1 Z " fill="#FFFFFF" transform="translate(293,397)"/>
<path d="M0 0 C4 1 4 1 4 1 Z " fill="#FFFFFF" transform="translate(280,397)"/>
<path d="M0 0 C1 4 1 4 1 4 Z " fill="#FFFFFF" transform="translate(255,368)"/>
<path d="M0 0 C3 1 3 1 3 1 Z " fill="#D6D6D6" transform="translate(231,0)"/>
<path d="" fill="#FFFFFF" transform="translate(0,0)"/>
<path d="" fill="#FFFFFF" transform="translate(0,0)"/>
<path d="M0 0 C2 1 2 1 2 1 Z " fill="#FFFFFF" transform="translate(313,366)"/>
<path d="" fill="#FFFFFF" transform="translate(0,0)"/>
<path d="" fill="#FFFFFF" transform="translate(0,0)"/>
<path d="" fill="#FFFFFF" transform="translate(0,0)"/>
<path d="" fill="#FFFFFF" transform="translate(0,0)"/>
<path d="M0 0 C2 1 2 1 2 1 Z " fill="#FFFFFF" transform="translate(311,347)"/>
<path d="" fill="#FFFFFF" transform="translate(0,0)"/>
<path d="" fill="#FFFFFF" transform="translate(0,0)"/>
<path d="M0 0 C2 1 2 1 2 1 Z " fill="#FFFFFF" transform="translate(420,323)"/>
<path d="" fill="#FFFFFF" transform="translate(0,0)"/>
<path d="" fill="#FFFFFF" transform="translate(0,0)"/>
<path d="" fill="#FFFFFF" transform="translate(0,0)"/>
<path d="" fill="#FFFFFF" transform="translate(0,0)"/>
<path d="" fill="#FFFFFF" transform="translate(0,0)"/>
<path d="" fill="#FFFFFF" transform="translate(0,0)"/>
<path d="" fill="#FFFFFF" transform="translate(0,0)"/>
<path d="" fill="#FFFFFF" transform="translate(0,0)"/>
<path d="" fill="#FFFFFF" transform="translate(0,0)"/>
<path d="" fill="#FFFFFF" transform="translate(0,0)"/>
<path d="" fill="#FFFFFF" transform="translate(0,0)"/>
<path d="" fill="#FFFFFF" transform="translate(0,0)"/>
<path d="" fill="#FFFFFF" transform="translate(0,0)"/>
<path d="" fill="#FFFFFF" transform="translate(0,0)"/>
<path d="" fill="#FFFFFF" transform="translate(0,0)"/>
<path d="" fill="#FFFFFF" transform="translate(0,0)"/>
<path d="" fill="#FFFFFF" transform="translate(0,0)"/>
<path d="" fill="#FFFFFF" transform="translate(0,0)"/>
<path d="" fill="#FFFFFF" transform="translate(0,0)"/>
<path d="" fill="#FFFFFF" transform="translate(0,0)"/>
<path d="" fill="#FFFFFF" transform="translate(0,0)"/>
<path d="" fill="#FFFFFF" transform="translate(0,0)"/>
<path d="" fill="#FFFFFF" transform="translate(0,0)"/>
<path d="" fill="#FFFFFF" transform="translate(0,0)"/>
<path d="" fill="#FFFFFF" transform="translate(0,0)"/>
<path d="" fill="#FFFFFF" transform="translate(0,0)"/>
<path d="" fill="#FFFFFF" transform="translate(0,0)"/>
<path d="" fill="#FFFFFF" transform="translate(0,0)"/>
<path d="" fill="#FFFFFF" transform="translate(0,0)"/>
<path d="" fill="#FFFFFF" transform="translate(0,0)"/>
<path d="" fill="#FFFFFF" transform="translate(0,0)"/>
<path d="" fill="#FFFFFF" transform="translate(0,0)"/>
<path d="" fill="#FFFFFF" transform="translate(0,0)"/>
<path d="" fill="#FFFFFF" transform="translate(0,0)"/>
<path d="" fill="#FFFFFF" transform="translate(0,0)"/>
<path d="" fill="#FFFFFF" transform="translate(0,0)"/>
<path d="" fill="#FFFFFF" transform="translate(0,0)"/>
<path d="" fill="#FFFFFF" transform="translate(0,0)"/>
<path d="" fill="#FFFFFF" transform="translate(0,0)"/>
<path d="" fill="#FFFFFF" transform="translate(0,0)"/>
<path d="" fill="#FFFFFF" transform="translate(0,0)"/>
<path d="" fill="#FFFFFF" transform="translate(0,0)"/>
<path d="" fill="#FFFFFF" transform="translate(0,0)"/>
<path d="" fill="#FFFFFF" transform="translate(0,0)"/>
<path d="" fill="#FFFFFF" transform="translate(0,0)"/>
<path d="" fill="#FFFFFF" transform="translate(0,0)"/>
<path d="" fill="#FFFFFF" transform="translate(0,0)"/>
<path d="" fill="#FFFFFF" transform="translate(0,0)"/>
<path d="" fill="#FFFFFF" transform="translate(0,0)"/>
<path d="" fill="#FFFFFF" transform="translate(0,0)"/>
<path d="" fill="#FFFFFF" transform="translate(0,0)"/>
<path d="" fill="#FFFFFF" transform="translate(0,0)"/>
<path d="" fill="#FFFFFF" transform="translate(0,0)"/>
<path d="" fill="#FFFFFF" transform="translate(0,0)"/>
<path d="" fill="#FFFFFF" transform="translate(0,0)"/>
<path d="" fill="#FFFFFF" transform="translate(0,0)"/>
<path d="" fill="#FFFFFF" transform="translate(0,0)"/>
<path d="" fill="#FFFFFF" transform="translate(0,0)"/>
<path d="" fill="#FFFFFF" transform="translate(0,0)"/>
<path d="" fill="#FFFFFF" transform="translate(0,0)"/>
<path d="" fill="#FFFFFF" transform="translate(0,0)"/>
<path d="" fill="#FFFFFF" transform="translate(0,0)"/>
<path d="" fill="#FFFFFF" transform="translate(0,0)"/>
<path d="" fill="#FFFFFF" transform="translate(0,0)"/>
<path d="" fill="#FFFFFF" transform="translate(0,0)"/>
<path d="" fill="#FFFFFF" transform="translate(0,0)"/>
<path d="" fill="#FFFFFF" transform="translate(0,0)"/>
<path d="" fill="#FFFFFF" transform="translate(0,0)"/>
<path d="" fill="#FFFFFF" transform="translate(0,0)"/>
<path d="" fill="#FFFFFF" transform="translate(0,0)"/>
</svg>
